<svg width="87" height="40" viewBox="0 0 87 40" fill="none" xmlns="http://www.w3.org/2000/svg">
<path fill-rule="evenodd" clip-rule="evenodd" d="M10 0C4.47715 0 0 4.47715 0 10V22.5085C0 28.0314 4.47715 32.5085 10 32.5085H37.7983C37.8389 32.7156 37.9141 32.922 38.0278 33.1212L41.3713 38.9797C42.1389 40.3245 44.0778 40.3245 44.8454 38.9797L48.1889 33.1212C48.3026 32.922 48.3778 32.7156 48.4184 32.5085H77C82.5229 32.5085 87 28.0314 87 22.5085V10C87 4.47715 82.5228 0 77 0H10Z" fill="#1D1D1D"/>
<path d="M12.1992 11.6704C13.793 11.6704 14.9414 13.1235 14.9531 15.4087C14.9414 17.7173 13.793 19.1587 12.1992 19.1587C10.5938 19.1587 9.43359 17.7173 9.44531 15.4087C9.43359 13.1235 10.5938 11.6704 12.1992 11.6704ZM12.1992 12.8423C11.3086 12.8423 10.6992 13.7915 10.6992 15.4087C10.6992 17.0376 11.3086 17.9868 12.1992 17.9868C13.1016 17.9868 13.6992 17.0376 13.6992 15.4087C13.6992 13.7915 13.1016 12.8423 12.1992 12.8423ZM17.6484 10.897V14.9634H19.2773V16.0649H17.6484V21.4907H16.3477V10.897H17.6484ZM29.3186 16.897V17.9517H25.0999V21.479H23.8108V17.9517H19.6389V16.897H29.3186ZM28.135 11.436V15.6548H20.8225V11.436H28.135ZM22.0999 12.479V14.6353H26.8343V12.479H22.0999ZM39.0904 10.897V21.4907H37.8248V10.897H39.0904ZM36.8638 11.1079V20.9751H35.6451V15.8892H33.606V14.8228H35.6451V11.1079H36.8638ZM34.3326 12.1392V13.1821H31.5787V17.9751C32.8326 17.9634 33.729 17.9106 34.7662 17.6938L34.8716 18.7603C33.6763 19.0063 32.6216 19.0532 31.0162 19.0649H30.3013V12.1392H34.3326ZM50.116 14.9868V16.0532H48.5457V21.4673H47.2449V10.897H48.5457V14.9868H50.116ZM41.9129 11.9282V17.7759C43.325 17.7524 44.8309 17.6294 46.4246 17.2954L46.5653 18.397C44.784 18.7485 43.0848 18.854 41.5145 18.854H40.6238V11.9282H41.9129ZM61.8197 11.3306V12.2095C61.8197 13.0356 61.8197 13.938 61.597 15.0688H62.9564V16.1118H53.347V15.0688H60.308C60.3724 14.6938 60.4193 14.3481 60.4603 14.0142L54.4017 14.272L54.2494 13.2642L60.5072 13.1118C60.5189 12.854 60.5189 12.6079 60.5189 12.3618H54.5189V11.3306H61.8197ZM61.8783 16.8735V19.5454H55.7259V20.3423H62.2533V21.3618H54.4369V18.5962H60.5775V17.8696H54.4134V16.8735H61.8783ZM72.4469 10.9087V17.3892H71.1344V10.9087H72.4469ZM72.4469 17.8813V21.4907H71.1344V18.9478H65.2164V17.8813H72.4469ZM69.0485 11.5063V14.647H65.4625V15.8306C67.2789 15.8247 68.5621 15.7661 70.0797 15.5376L70.2438 16.5806C68.568 16.8501 67.1383 16.897 65.0875 16.897H64.1852V13.6392H67.7594V12.561H64.1618V11.5063H69.0485ZM76.1015 11.9634L75.9726 17.9517H74.6483L74.5077 11.9634H76.1015ZM75.3163 20.5415C74.8124 20.5415 74.4023 20.1313 74.4023 19.6274C74.4023 19.1353 74.8124 18.7251 75.3163 18.7251C75.7968 18.7251 76.2187 19.1353 76.2187 19.6274C76.2187 20.1313 75.7968 20.5415 75.3163 20.5415Z" fill="white"/>
</svg>
