<svg width="85" height="18" viewBox="0 0 85 18" fill="none" xmlns="http://www.w3.org/2000/svg">
<g clip-path="url(#clip0_3264_21837)">
<path d="M14.9951 12.5588C14.9951 12.5469 14.9951 12.5363 14.9937 12.523L14.991 7.33688C15.029 7.06987 14.9462 6.7909 14.7466 6.57835C14.4316 6.24227 13.7011 5.62589 12.2185 5.05733C12.7466 4.04508 12.7086 2.99963 12.1031 2.50811C11.9374 2.37262 11.7473 2.269 11.5423 2.19328C11.5084 1.94088 11.4323 1.7031 11.3142 1.49587C10.8892 0.749304 10.0135 0.273734 8.7141 0.0850999C7.80711 -0.0464124 7.0169 0.0133659 6.98295 0.0146943C6.77793 0.0306352 6.60821 0.174103 6.56069 0.370707C6.51317 0.567312 6.60007 0.770558 6.77522 0.875502C6.9205 0.963177 7.21513 1.21425 7.19476 1.43343C7.1839 1.54768 7.04813 1.95948 5.72295 2.47092C4.6286 2.89468 4.03254 3.47121 3.95108 4.18589C3.81666 5.37482 4.86485 5.9819 5.02371 6.08684L5.85737 5.60995C5.57632 5.42264 4.83362 4.82619 4.89608 4.28552C4.94496 3.85512 5.56274 3.53099 6.0719 3.33438C7.40522 2.81896 8.08138 2.22118 8.14248 1.5065C8.16013 1.29926 8.12211 1.11196 8.05423 0.945908C8.96257 1.011 10.0922 1.25543 10.486 1.94753C10.5023 1.97542 10.5172 2.00465 10.5294 2.03387C9.79894 2.04716 9.05897 2.30354 8.61226 2.7087C8.09767 3.17365 8.01757 3.79667 8.40317 4.33467C8.84987 4.95637 9.61022 5.06928 10.3393 4.62161C10.9232 4.26294 11.2898 3.73955 11.4568 3.19224C11.4703 3.20287 11.4853 3.2135 11.4989 3.22413C11.7012 3.38885 11.7405 4.04508 11.2816 4.80095C10.6177 5.89555 9.14722 6.76965 7.01418 5.93806C6.88112 5.88625 6.73177 5.89555 6.60685 5.96463C6.59056 5.97393 4.98841 6.85201 3.40933 7.82042C0.259332 9.74793 0.00950431 10.274 0.0203664 10.6831C0.0271552 10.9103 0.160216 11.1082 0.377457 11.2132C0.52681 11.2849 0.795647 11.3141 1.14731 11.3141C3.0631 11.3141 7.37806 10.4135 7.42966 10.4015C11.2368 9.60181 13.1159 8.8858 14.0406 8.35975L14.0433 12.5336C14.0433 12.5482 14.0433 12.5628 14.0447 12.5774V12.7342C14.0555 13.5764 14.061 14.0839 12.2972 14.8875C10.156 15.8626 4.72364 17.2468 0.953147 17.0462V16.1947C2.09638 16.2239 4.66798 16.0087 7.66455 15.3126C9.47444 14.8915 11.1689 14.5129 13.0684 13.5339C13.3183 13.405 13.4785 13.1526 13.4839 12.871L13.4948 11.8322C13.5002 11.5679 13.3685 11.3234 13.1431 11.1786C12.9177 11.0338 12.6367 11.0139 12.3909 11.1255C11.2151 11.6582 5.62112 13.4808 0.951789 13.4927V12.863C1.99319 12.8524 6.63265 12.6611 12.7819 10.3909L12.7779 9.36934C7.66319 11.443 2.25795 11.973 0.79972 11.9345C0.58791 11.9318 0.388319 12.0049 0.23625 12.1497C0.084181 12.2945 0 12.4884 0 12.6957V13.6614C0 14.0785 0.344871 14.4199 0.768491 14.4239C0.81194 14.4239 0.855388 14.4239 0.898836 14.4239C5.22737 14.4239 10.6082 12.8777 12.5389 12.078L12.5321 12.7594C10.7874 13.6468 9.2572 13.9776 7.5858 14.3748C4.47789 15.1134 1.8194 15.298 0.806509 15.2622C0.597414 15.2555 0.388319 15.3326 0.237608 15.4747C0.0868966 15.6168 0 15.8174 0 16.022V17.2069C0 17.6055 0.309569 17.9389 0.704677 17.9655C1.05905 17.9894 1.427 18 1.80446 18C5.67407 18 10.581 16.6942 12.695 15.7324C14.8485 14.752 15.006 13.8687 14.9924 12.7262V12.5588H14.9951ZM9.83153 3.83254C9.39569 4.09955 9.23819 3.88036 9.17845 3.798C9.09698 3.68508 9.0481 3.57748 9.25448 3.39018C9.53554 3.13645 10.042 2.97439 10.5281 2.9611C10.3896 3.33173 10.1153 3.65852 9.83289 3.83121L9.83153 3.83254ZM7.37942 9.46233C4.60145 10.0535 2.31091 10.355 1.28987 10.3922C2.18056 9.62838 4.62588 8.12196 6.87297 6.88256C8.0067 7.27842 9.10377 7.30366 10.061 6.95429C10.6801 6.72714 11.2355 6.34455 11.6727 5.85039C13.0969 6.36448 13.7595 6.90647 14.0392 7.19739V7.21865C13.6414 7.68757 11.6672 8.55104 7.37942 9.46233Z" fill="#828282"/>
<path d="M0.510969 10.2413L6.32526 6.43237C8.83054 7.4481 10.6484 6.2913 11.2442 5.58594C11.9598 5.58594 13.6296 6.71452 14.375 7.27881C13.9277 8.54846 4.9835 10.6646 1.85273 11.0878C-0.65189 11.4263 -0.0853689 10.6646 0.510969 10.2413Z" fill="#828282"/>
</g>
<g clip-path="url(#clip1_3264_21837)">
<path d="M51.8343 4.60689H50.3753L51.4078 5.62811L50.8741 6.15603L49.8416 5.13481V6.58226H49.087V5.13481L48.0545 6.15603L47.5208 5.62811L48.5532 4.60689H47.0942V3.86045H48.5532L47.5208 2.83923L48.0545 2.31563L49.087 3.33686V1.8894H49.8416V3.33686L50.8741 2.31563L51.4078 2.83923L50.3753 3.86045H51.8343V4.60689Z" fill="#828282"/>
<path d="M46.2427 2.60083V16.8216H44.0971V10.7756H38.1798V16.8216H36.0427V2.60083H38.1798V8.65023H44.0971V2.60083H46.2427Z" fill="#828282"/>
<path d="M48.4287 7.57764H50.6144L50.6144 16.8211H48.4287L48.4287 7.57764Z" fill="#828282"/>
<path d="M30.3076 16.8169C30.2196 16.8169 30.1295 16.8169 30.0394 16.8105C29.0224 16.7612 28.0783 16.3732 27.2887 15.7194C27.1943 15.7795 27.0978 15.8395 27.0012 15.8952C25.1324 16.9884 23.2142 17.0827 21.6007 16.161C21.1824 15.9231 20.8047 15.6123 20.4722 15.2372C19.2578 13.8653 18.9981 11.8997 19.7748 9.97908C20.1675 9.00806 20.794 8.23854 21.4012 7.49259C22.1221 6.60731 22.7465 5.83993 22.8752 4.89034C22.9117 4.6224 22.8237 4.27944 22.6735 4.1101C22.607 4.03293 22.5641 4.03293 22.5298 4.03293C22.1092 4.03293 21.6673 4.50451 21.2124 5.42837L19.2856 4.48522C19.601 3.8443 20.558 1.89583 22.5212 1.8894H22.5298C23.2056 1.8894 23.83 2.17664 24.287 2.69751C24.8492 3.33843 25.1217 4.28801 24.9994 5.17972C24.7891 6.7252 23.8729 7.85056 23.064 8.84515C22.5341 9.49679 22.0342 10.1098 21.7617 10.7829C21.5385 11.3359 21.1223 12.7378 22.0771 13.8203C22.253 14.0175 22.4483 14.1804 22.6607 14.3026C23.8386 14.9756 25.0809 14.5362 25.9134 14.0496H25.9177C25.7031 13.6595 25.5207 13.2372 25.3727 12.785C25.3577 12.7378 25.3427 12.6906 25.3298 12.6456C24.8899 11.1559 24.7505 8.81515 25.7975 7.13033C26.5292 5.95568 27.9281 5.4198 29.2798 5.80134C30.6316 6.18075 31.5112 7.32968 31.522 8.7294C31.5348 10.5857 30.5243 12.7099 28.9794 14.3197C29.3056 14.5191 29.6896 14.6541 30.1381 14.6756C30.9148 14.7141 31.4919 14.5019 31.9511 14.0111C33.3264 12.5342 33.2406 9.00592 33.0904 7.77125L35.221 7.50974C35.2274 7.56332 35.384 8.86016 35.2768 10.4442C35.1266 12.6885 34.5365 14.3797 33.526 15.4665C32.6978 16.3561 31.5885 16.8212 30.3033 16.8212L30.3076 16.8169ZM28.4109 7.8184C28.1276 7.8184 27.8251 7.93415 27.6234 8.25568C26.9969 9.26529 27.0634 10.9222 27.3917 12.0347C27.4003 12.0647 27.4089 12.0926 27.4174 12.1205C27.4561 12.2405 27.5204 12.4163 27.6106 12.6221C28.6662 11.4345 29.3893 9.93407 29.3807 8.73798C29.3764 8.11421 28.9043 7.91486 28.7027 7.85913C28.6125 7.83341 28.5117 7.8184 28.4109 7.8184Z" fill="#828282"/>
<path d="M69.0142 16.8212C66.5093 16.8212 64.3386 15.6518 63.3537 14.0609C61.9779 11.8411 63.1201 9.65889 64.6509 8.35925C64.7077 8.31071 64.7667 8.26216 64.8234 8.21362C64.806 8.18714 64.7885 8.16287 64.771 8.13639C64.2098 7.31557 64.0001 6.40869 64.1683 5.51064C64.3474 4.55302 64.9523 3.68144 65.8717 3.05479C67.5685 1.90299 69.7741 1.57643 71.6304 2.20308L70.9381 4.29485C69.7283 3.88665 68.2193 4.11833 67.0902 4.88399C66.6578 5.17746 66.3827 5.54374 66.3128 5.91664C66.256 6.22555 66.339 6.5477 66.5639 6.87647C66.588 6.91178 66.6142 6.94929 66.6404 6.98459C67.2584 6.65582 67.8873 6.40428 68.525 6.23658C71.1477 5.53933 72.1589 6.6139 72.5301 7.31557C72.9319 8.07682 72.8948 9.04768 72.4362 9.79348C71.4993 11.316 69.4902 11.3623 67.9157 10.7312C67.3632 10.5106 66.8304 10.1973 66.3368 9.81113C66.2429 9.88616 66.149 9.96338 66.0551 10.0428C65.2733 10.707 64.4915 11.7396 65.2034 12.8848C66.3565 14.7449 69.4968 14.9876 71.5932 14.041C72.7441 13.5225 73.4145 12.7083 73.4211 12.6995L75.1223 14.0829C75.024 14.2087 74.109 15.323 72.4842 16.0556C71.3115 16.5851 70.1301 16.8168 69.0142 16.8168V16.8212ZM68.4704 8.57328C68.5534 8.613 68.6386 8.65051 68.7215 8.68581C69.4291 8.97045 70.3463 9.01679 70.5821 8.63506C70.6367 8.5468 70.6367 8.42103 70.604 8.35925C70.5297 8.21803 70.0078 8.12977 69.0819 8.3769C68.8788 8.42986 68.6757 8.49605 68.4704 8.57549V8.57328Z" fill="#828282"/>
<path d="M78.4849 16.8212C75.98 16.8212 73.8092 15.6518 72.8243 14.0609C71.4484 11.8411 72.5928 9.65889 74.1215 8.35925C74.1783 8.31071 74.2372 8.26216 74.294 8.21362C74.2765 8.18714 74.2591 8.16287 74.2416 8.13639C73.6803 7.31557 73.4707 6.40869 73.6388 5.51064C73.8179 4.55302 74.4229 3.68144 75.3423 3.05479C77.037 1.90299 79.2449 1.57643 81.1012 2.20308L80.4089 4.29485C79.199 3.88665 77.69 4.11833 76.5609 4.88399C76.1285 5.17746 75.8533 5.54374 75.7834 5.91664C75.7266 6.22555 75.8096 6.5477 76.0346 6.87647C76.0586 6.91178 76.0848 6.94929 76.111 6.98459C76.729 6.65582 77.358 6.40428 77.9957 6.23658C80.6185 5.53933 81.6297 6.6139 82.001 7.31557C82.4028 8.07682 82.3657 9.04768 81.907 9.79348C80.9702 11.316 78.961 11.3623 77.3864 10.7312C76.8339 10.5106 76.301 10.1973 75.8074 9.81113C75.7135 9.88616 75.6196 9.96338 75.5257 10.0428C74.7439 10.707 73.9621 11.7396 74.674 12.8848C75.8271 14.7449 78.9675 14.9854 81.0641 14.041C82.215 13.5225 82.8854 12.7083 82.892 12.6995L84.5932 14.0829C84.495 14.2087 83.5821 15.323 81.9551 16.0556C80.7823 16.5851 79.6009 16.8168 78.4849 16.8168V16.8212ZM77.9411 8.57328C78.0241 8.613 78.1093 8.65051 78.1922 8.68581C78.902 8.97045 79.8171 9.01679 80.0529 8.63506C80.1075 8.5468 80.1075 8.42103 80.0748 8.35925C80.0005 8.21803 79.4786 8.12977 78.5526 8.3769C78.3495 8.42986 78.1464 8.49605 77.9411 8.57549V8.57328Z" fill="#828282"/>
<path d="M54.248 16.8219C53.777 16.8219 53.3122 16.6746 52.9058 16.3842C52.5244 16.111 52.2264 15.7011 52.0242 15.1652C51.4094 13.5406 51.6116 10.7279 52.6266 8.10416C52.8538 7.51494 53.1122 6.95775 53.3998 6.43684C53.0872 5.52739 52.7183 4.55604 52.2869 3.50569L54.2085 2.6795C54.444 3.25591 54.6628 3.80884 54.865 4.34469C55.2526 3.91345 55.6653 3.52917 56.103 3.19613C56.1884 3.13209 56.2718 3.07018 56.3593 3.0104C57.8057 2.02197 60.0107 1.41353 61.8635 2.66456C63.114 3.50782 63.7288 4.9275 63.4683 6.36853C63.2932 7.33562 62.4054 9.69249 57.9453 10.698L57.4972 8.61226C59.746 8.10416 61.2112 7.12 61.4175 5.97785C61.5217 5.39717 61.2529 4.80795 60.7151 4.44502C59.8627 3.87075 58.6664 3.9967 57.5139 4.78447C57.4556 4.82503 57.3972 4.86559 57.3409 4.90829C56.7324 5.37155 56.1759 5.97571 55.6882 6.70156C56.1696 8.22371 56.5031 9.60283 56.7199 10.9457L56.724 10.9713C56.8762 11.9149 57.047 13.6452 56.7802 14.7212C56.5635 15.5922 55.8945 16.3544 55.0733 16.6682C54.8024 16.7707 54.5231 16.8219 54.248 16.8219ZM54.321 9.56867C53.7249 11.3342 53.6019 13.4253 53.9687 14.3946C54.0417 14.5888 54.0979 14.6337 54.1 14.6337C54.1875 14.6956 54.2522 14.7041 54.348 14.6678C54.5314 14.5974 54.7128 14.3903 54.7607 14.1939C54.9212 13.5513 54.792 12.0921 54.6691 11.3214L54.6649 11.2958C54.5732 10.7322 54.4606 10.16 54.321 9.56867Z" fill="#828282"/>
</g>
<defs>
<clipPath id="clip0_3264_21837">
<rect width="15" height="18" fill="white"/>
</clipPath>
<clipPath id="clip1_3264_21837">
<rect width="65.5714" height="15.6429" fill="white" transform="translate(19.2856 1.17847)"/>
</clipPath>
</defs>
</svg>
