<svg width="58" height="67" viewBox="0 0 58 67" fill="none" xmlns="http://www.w3.org/2000/svg">
<g clip-path="url(#clip0_2313_57270)">
<path fill-rule="evenodd" clip-rule="evenodd" d="M13.9185 22.6256C11.7755 22.6388 10.1206 23.2388 8.96063 24.2478C7.65645 25.3886 7.06661 26.9679 7.06006 28.5341C7.06006 32.7446 11.3265 34.3536 14.9573 34.7657C11.3265 35.1812 7.06006 36.7902 7.06006 40.9974C7.06661 42.5635 7.65645 44.1429 8.96391 45.2804C10.1239 46.2893 11.7755 46.8927 13.9218 46.9026C13.9349 49.0589 14.5313 50.7207 15.5373 51.8846C16.6711 53.1969 18.2407 53.7871 19.7972 53.7871C23.3329 53.7871 25.3777 50.0118 25.9413 46.5333C26.5049 50.0085 28.5497 53.7871 32.0854 53.7871C33.6419 53.7871 35.2115 53.1969 36.3453 51.8846C37.348 50.7207 37.9477 49.0589 37.9608 46.9026C40.1039 46.8894 41.7587 46.2893 42.9187 45.2804C44.2261 44.1429 44.816 42.5635 44.8225 40.9974C44.8225 36.7869 40.5561 35.1779 36.9253 34.7657C40.5561 34.3536 44.8225 32.7446 44.8225 28.5341C44.816 26.9679 44.2261 25.3886 42.9187 24.2511C41.7587 23.2421 40.1071 22.6388 37.9608 22.6289C37.9477 20.4725 37.3513 18.8107 36.3453 17.6468C35.2082 16.3313 33.6386 15.7411 32.0821 15.7411C28.5464 15.7411 26.5016 19.5163 25.938 22.9949C25.3711 19.5163 23.3296 15.7411 19.7939 15.7411C18.2374 15.7411 16.6678 16.3313 15.534 17.6436C14.5313 18.8075 13.9316 20.4692 13.9185 22.6256Z" fill="url(#paint0_linear_2313_57270)"/>
<path fill-rule="evenodd" clip-rule="evenodd" d="M25.0374 43.9714C25.0374 43.9714 21.06 70.995 41.0158 70.7412L41.6196 68.1331C41.6196 68.1331 35.7148 69.4355 30.3933 62.1421C27.6604 58.3965 26.9133 52.6529 26.7036 43.9714H25.0374Z" fill="url(#paint1_linear_2313_57270)"/>
<path fill-rule="evenodd" clip-rule="evenodd" d="M36.6934 17.3222C37.6805 18.4559 38.2266 20.11 38.1403 22.2902C40.3645 22.2057 42.0503 22.7409 43.2043 23.7091C44.5066 24.8019 45.0414 26.3721 44.9725 27.955C44.8367 31.067 42.3181 34.4707 38.3713 34.6419C38.358 34.6425 38.3447 34.6427 38.3314 34.6426L26.3318 34.5815C25.9175 34.5793 25.6001 34.2683 25.5979 33.8622L25.5355 22.1029C25.5354 22.0899 25.5357 22.0768 25.5363 22.0638C25.7118 18.1758 29.1828 15.7048 32.3622 15.578C33.978 15.5135 35.5794 16.0427 36.6934 17.3222Z" fill="#FF7878"/>
<path fill-rule="evenodd" clip-rule="evenodd" d="M14.9179 52.2877C13.9308 51.154 13.3848 49.4999 13.471 47.3197C11.2469 47.4042 9.56102 46.8689 8.40707 45.9007C7.10471 44.808 6.5699 43.2378 6.63885 41.6549C6.77458 38.5428 9.29321 35.1391 13.24 34.968C13.2533 34.9674 13.2666 34.9672 13.2799 34.9672L25.2795 35.0284C25.6938 35.0306 26.0112 35.3416 26.0134 35.7476L26.0758 47.507C26.0759 47.52 26.0756 47.533 26.0751 47.5461C25.8996 51.434 22.4285 53.9051 19.2491 54.0319C17.6334 54.0964 16.032 53.5671 14.9179 52.2877Z" fill="#FF7878"/>
<path d="M54.0001 61.1108H50.5452L52.9901 63.5046L51.7262 64.742L49.2813 62.3483V65.7411H47.4942V62.3483L45.0493 64.742L43.7855 63.5046L46.2303 61.1108H42.7754V59.3612H46.2303L43.7855 56.9675L45.0493 55.7402L47.4942 58.1339V54.7411H49.2813V58.1339L51.7262 55.7402L52.9901 56.9675L50.5452 59.3612H54.0001V61.1108Z" fill="#F24D4D"/>
</g>
<defs>
<linearGradient id="paint0_linear_2313_57270" x1="15.2235" y1="22.2411" x2="40.1527" y2="51.241" gradientUnits="userSpaceOnUse">
<stop stop-color="#F24D4D"/>
<stop offset="1" stop-color="#F24D4D"/>
</linearGradient>
<linearGradient id="paint1_linear_2313_57270" x1="25.2903" y1="47.2411" x2="36.1532" y2="69.9145" gradientUnits="userSpaceOnUse">
<stop stop-color="#F24D4D"/>
<stop offset="0.914545" stop-color="white"/>
</linearGradient>
<clipPath id="clip0_2313_57270">
<rect width="58" height="67" fill="white"/>
</clipPath>
</defs>
</svg>
