<svg width="36" height="36" viewBox="0 0 36 36" fill="none" xmlns="http://www.w3.org/2000/svg">
<path d="M7.25 16.5C6.42157 16.5 5.75 17.1716 5.75 18C5.75 18.8284 6.42157 19.5 7.25 19.5V16.5ZM29.8107 19.0607C30.3964 18.4749 30.3964 17.5251 29.8107 16.9393L20.2647 7.3934C19.6789 6.80761 18.7292 6.80761 18.1434 7.3934C17.5576 7.97919 17.5576 8.92893 18.1434 9.51472L26.6287 18L18.1434 26.4853C17.5576 27.0711 17.5576 28.0208 18.1434 28.6066C18.7292 29.1924 19.6789 29.1924 20.2647 28.6066L29.8107 19.0607ZM7.25 19.5H28.75V16.5H7.25V19.5Z" fill="white"/>
</svg>
