<svg width="58" height="67" viewBox="0 0 58 67" fill="none" xmlns="http://www.w3.org/2000/svg">
<path d="M34 19.3698H30.6142L33.0102 21.7635L31.7716 23.0009L29.3756 20.6072V24H27.6244V20.6072L25.2284 23.0009L23.9898 21.7635L26.3858 19.3698H23V17.6201H26.3858L23.9898 15.2264L25.2284 13.9991L27.6244 16.3928V13H29.3756V16.3928L31.7716 13.9991L33.0102 15.2264L30.6142 17.6201H34V19.3698Z" fill="#F24D4D"/>
<path d="M12 40C12 37.7909 13.7909 36 16 36H42C44.2091 36 46 37.7909 46 40V55H12V40Z" fill="#FF7878"/>
<rect x="4" y="48" width="50" height="19" rx="4" fill="#F24D4D"/>
<rect x="26" y="26" width="5" height="10" fill="#F24D4D"/>
</svg>
