<svg width="58" height="67" viewBox="0 0 58 67" fill="none" xmlns="http://www.w3.org/2000/svg">
<path d="M57.5777 18.5903H54.1576L56.5778 21.067L55.3267 22.3472L52.9065 19.8706V23.3809H51.1375V19.8706L48.7173 22.3472L47.4662 21.067L49.8864 18.5903H46.4663V16.7801H49.8864L47.4662 14.3035L48.7173 13.0337L51.1375 15.5103V12H52.9065V15.5103L55.3267 13.0337L56.5778 14.3035L54.1576 16.7801H57.5777V18.5903Z" fill="#F24D4D"/>
<path d="M44.75 51.8068L48.5173 61.2209" stroke="#FF7878" stroke-width="3"/>
<path d="M56.5625 58.9944L41.1576 65.1591" stroke="#F24D4D" stroke-width="3"/>
<path d="M41.1509 18L24.8901 24.5072L34.1371 47.6146C35.934 52.1048 41.0308 54.2883 45.5211 52.4914C50.0114 50.6945 52.1948 45.5977 50.3979 41.1074L41.1509 18Z" fill="#F24D4D"/>
<path d="M44.0882 32.7818L30.8811 32.7818L36.3018 45.801C37.57 48.847 41.0499 50.3093 44.1132 49.0835C47.2068 47.8455 48.7111 44.334 47.4731 41.2404L44.0882 32.7818Z" fill="#FF7878"/>
<path d="M12.6689 51.8068L8.90164 61.2209" stroke="#F24D4D" stroke-width="3"/>
<path d="M0.856445 58.9944L16.2614 65.1591" stroke="#FF7878" stroke-width="3"/>
<path d="M16.2681 18L32.5288 24.5072L23.2818 47.6146C21.4849 52.1048 16.3881 54.2883 11.8978 52.4914C7.40755 50.6945 5.22414 45.5977 7.02104 41.1074L16.2681 18Z" fill="#FF7878"/>
<path d="M13.3315 32.782L26.2712 32.7818L21.0636 45.7389C19.8299 48.8084 16.3435 50.2989 13.2721 49.0698C10.1975 47.8394 8.70247 44.3496 9.93285 41.275L13.3315 32.782Z" fill="#F24D4D"/>
</svg>
