<svg width="58" height="67" viewBox="0 0 58 67" fill="none" xmlns="http://www.w3.org/2000/svg">
<path fill-rule="evenodd" clip-rule="evenodd" d="M28.6851 39.0192L28.7215 37.7871H33.9095L34.2665 34.2568L34.4072 39.0194L37.5472 39.4282L41.5076 26.4686C42.2047 24.1874 40.6712 21.8119 38.3024 21.5035C37.0553 21.3411 35.8925 21.7938 35.0915 22.6103C34.5668 21.05 33.0925 19.905 31.3281 19.905C29.6793 19.905 28.28 20.906 27.677 22.3158C26.9016 21.6881 25.8778 21.3616 24.7899 21.5033C22.4211 21.8117 20.8876 24.1872 21.5847 26.4683L25.5451 39.428L28.6851 39.0192Z" fill="#F24D4D"/>
<path fill-rule="evenodd" clip-rule="evenodd" d="M23.717 33.1929C19.5443 34.9811 13.7008 39.0685 10.8898 48.7759C9.10163 58.4833 14.3011 65.3767 25.5955 66.3985L32.1418 66.4143L32.1418 66.4061L37.7398 66.4061C49.0342 65.3843 54.118 58.4833 52.3298 48.7759C49.5188 39.0685 43.6753 34.9811 39.5026 33.1929L32.1476 33.1929L31.072 33.1929L23.717 33.1929Z" fill="#F24D4D"/>
<rect x="20.7949" y="30.6431" width="20.803" height="3.06549" rx="1.53275" fill="#FF7878"/>
<ellipse cx="31.5998" cy="50.5644" rx="10.2189" ry="10.2183" fill="#FF7878"/>
<path d="M37.7275 51.5341H33.9531L36.6241 54.2025L35.2433 55.5819L32.5723 52.9135V56.6956H30.62V52.9135L27.9491 55.5819L26.5683 54.2025L29.2393 51.5341H25.4648V49.5837H29.2393L26.5683 46.9154L27.9491 45.5473L30.62 48.2156V44.4336H32.5723V48.2156L35.2433 45.5473L36.6241 46.9154L33.9531 49.5837H37.7275V51.5341Z" fill="#F24D4D"/>
<path d="M16.0143 17.6498H12.6283L15.0244 20.0435L13.7858 21.281L11.3897 18.8872V22.28H9.63831V18.8872L7.24223 21.281L6.00358 20.0435L8.39966 17.6498H5.01367V15.9001H8.39966L6.00358 13.5064L7.24223 12.2791L9.63831 14.6728V11.28H11.3897V14.6728L13.7858 12.2791L15.0244 13.5064L12.6283 15.9001H16.0143V17.6498Z" fill="#F24D4D"/>
</svg>
