<svg width="24" height="24" viewBox="0 0 24 24" fill="none" xmlns="http://www.w3.org/2000/svg">
<path fill-rule="evenodd" clip-rule="evenodd" d="M12 21C12 21 20 14.9545 20 9.77273C20 5.53918 16.3573 2 12 2C7.64267 2 4 5.53918 4 9.77273C4 14.9545 12 21 12 21ZM15 10C15 11.6569 13.6569 13 12 13C10.3431 13 9 11.6569 9 10C9 8.34314 10.3431 7 12 7C13.6569 7 15 8.34314 15 10Z" fill="#1D1D1D"/>
<path d="M12 21L11.6986 21.3989C11.8769 21.5337 12.1231 21.5337 12.3014 21.3989L12 21ZM19.5 9.77273C19.5 10.945 19.045 12.2055 18.3173 13.4626C17.5924 14.7147 16.6187 15.9259 15.6332 16.9898C14.6493 18.052 13.6636 18.9566 12.9232 19.596C12.5533 19.9154 12.2456 20.1679 12.0309 20.34C11.9237 20.4261 11.8397 20.492 11.783 20.5361C11.7546 20.5581 11.7331 20.5747 11.7189 20.5856C11.7117 20.591 11.7065 20.5951 11.703 20.5977C11.7013 20.599 11.7001 20.5999 11.6994 20.6005C11.699 20.6008 11.6987 20.601 11.6986 20.6011C11.6985 20.6011 11.6985 20.6011 11.6985 20.6011C11.6985 20.6011 11.6986 20.6011 12 21C12.3014 21.3989 12.3016 21.3988 12.3017 21.3987C12.3018 21.3987 12.302 21.3985 12.3021 21.3984C12.3025 21.3981 12.303 21.3978 12.3036 21.3973C12.3047 21.3964 12.3064 21.3952 12.3085 21.3935C12.3128 21.3903 12.319 21.3855 12.327 21.3794C12.3431 21.3671 12.3664 21.3491 12.3967 21.3256C12.4572 21.2786 12.5451 21.2096 12.6566 21.1202C12.8794 20.9414 13.1967 20.6812 13.5768 20.3528C14.3364 19.6968 15.3507 18.7662 16.3668 17.6693C17.3813 16.5741 18.4076 15.3024 19.1827 13.9636C19.955 12.6297 20.5 11.1914 20.5 9.77273H19.5ZM12 2.5C16.0949 2.5 19.5 5.82881 19.5 9.77273H20.5C20.5 5.24955 16.6198 1.5 12 1.5V2.5ZM4.5 9.77273C4.5 5.82881 7.90513 2.5 12 2.5V1.5C7.38021 1.5 3.5 5.24955 3.5 9.77273H4.5ZM12 21C12.3014 20.6011 12.3015 20.6011 12.3015 20.6011C12.3015 20.6011 12.3015 20.6011 12.3014 20.6011C12.3013 20.601 12.301 20.6008 12.3006 20.6005C12.2999 20.5999 12.2987 20.599 12.297 20.5977C12.2935 20.5951 12.2883 20.591 12.2811 20.5856C12.2669 20.5747 12.2454 20.5581 12.217 20.5361C12.1603 20.492 12.0763 20.4261 11.9691 20.34C11.7544 20.1679 11.4467 19.9154 11.0768 19.596C10.3364 18.9566 9.35074 18.052 8.36681 16.9898C7.38133 15.9259 6.40762 14.7147 5.68271 13.4626C4.95496 12.2055 4.5 10.945 4.5 9.77273H3.5C3.5 11.1914 4.04504 12.6297 4.81729 13.9636C5.59238 15.3024 6.61867 16.5741 7.63319 17.6693C8.64926 18.7662 9.66362 19.6968 10.4232 20.3528C10.8033 20.6812 11.1206 20.9414 11.3434 21.1202C11.4549 21.2096 11.5428 21.2786 11.6033 21.3256C11.6336 21.3491 11.6569 21.3671 11.673 21.3794C11.681 21.3855 11.6872 21.3903 11.6915 21.3935C11.6936 21.3952 11.6953 21.3964 11.6964 21.3973C11.697 21.3978 11.6975 21.3981 11.6979 21.3984C11.698 21.3985 11.6982 21.3987 11.6983 21.3987C11.6984 21.3988 11.6986 21.3989 12 21ZM12 13.5C13.933 13.5 15.5 11.933 15.5 10H14.5C14.5 11.3807 13.3807 12.5 12 12.5V13.5ZM8.5 10C8.5 11.933 10.067 13.5 12 13.5V12.5C10.6193 12.5 9.5 11.3807 9.5 10H8.5ZM12 6.5C10.067 6.5 8.5 8.067 8.5 10H9.5C9.5 8.61928 10.6193 7.5 12 7.5V6.5ZM15.5 10C15.5 8.067 13.933 6.5 12 6.5V7.5C13.3807 7.5 14.5 8.61928 14.5 10H15.5Z" fill="#1D1D1D"/>
</svg>
