<svg width="24" height="24" viewBox="0 0 24 24" fill="none" xmlns="http://www.w3.org/2000/svg">
<g id="ic_line_location">
<path id="Vector" d="M20.7333 10C20.7333 16 11.8667 23 11.8667 23C11.8667 23 3 16 3 10C3 5.098 7.03729 1 11.8667 1C13.2192 1 14.5097 1.32144 15.6667 1.89196C20.7333 4.66667 16.9333 8.94444 15.0333 7.11111C13.4186 5.55308 17.4795 3.44444 22 5.88889" stroke="#1D1D1D" stroke-width="1.5" stroke-linecap="square" stroke-linejoin="round"/>
<path id="Vector_2" d="M11.75 13.5C12.9926 13.5 14 12.4926 14 11.25C14 10.0074 12.9926 9 11.75 9C10.5074 9 9.5 10.0074 9.5 11.25C9.5 12.4926 10.5074 13.5 11.75 13.5Z" stroke="#1D1D1D" stroke-width="1.5" stroke-linecap="round" stroke-linejoin="round"/>
</g>
</svg>
