<svg width="20" height="20" viewBox="0 0 20 20" fill="none" xmlns="http://www.w3.org/2000/svg">
<g id="ic_line_like_off_20">
<path id="Icon" d="M15.8967 4.4527C15.542 4.09784 15.1209 3.81634 14.6574 3.62428C14.1939 3.43223 13.6971 3.33337 13.1953 3.33337C12.6936 3.33337 12.1968 3.43223 11.7333 3.62428C11.2698 3.81634 10.8486 4.09784 10.494 4.4527L9.75784 5.18881L9.02173 4.4527C8.30528 3.73624 7.33356 3.33375 6.32034 3.33375C5.30712 3.33375 4.3354 3.73624 3.61895 4.4527C2.9025 5.16915 2.5 6.14087 2.5 7.15409C2.5 8.1673 2.9025 9.13902 3.61895 9.85548L9.75784 15.9944L15.8967 9.85548C16.2516 9.50078 16.5331 9.07965 16.7251 8.61614C16.9172 8.15263 17.0161 7.65581 17.0161 7.15409C17.0161 6.65236 16.9172 6.15555 16.7251 5.69203C16.5331 5.22852 16.2516 4.80739 15.8967 4.4527Z" stroke="#A9A9A9" stroke-width="1.5" stroke-linecap="round" stroke-linejoin="round"/>
</g>
</svg>
