<svg width="32" height="32" viewBox="0 0 32 32" fill="none" xmlns="http://www.w3.org/2000/svg">
<g id="_?&#235;&#141;&#137;&#236;&#148;&#160;??1">
<g id="Clip path group">
<mask id="mask0_1437_18376" style="mask-type:luminance" maskUnits="userSpaceOnUse" x="0" y="0" width="33" height="33">
<g id="clippath">
<path id="Vector" d="M32.0137 0.0134277H0.0136719V32.0134H32.0137V0.0134277Z" fill="white"/>
</g>
</mask>
<g mask="url(#mask0_1437_18376)">
<g id="Group">
<g id="Group_2">
<path id="Vector_2" d="M30.0109 16.0132C30.0109 13.8266 29.4909 11.6666 28.5176 9.71991C27.5442 7.77325 26.1042 6.06658 24.3442 4.77325C22.5842 3.47991 20.5442 2.59991 18.3976 2.22658C16.2376 1.85325 14.0242 1.98658 11.9442 2.62658C9.8509 3.26658 7.94423 4.38658 6.35756 5.89325C4.7709 7.39991 3.5709 9.26658 2.83756 11.3199C2.10423 13.3866 1.86423 15.5866 2.1309 17.7599C2.39756 19.9332 3.18423 22.0132 4.39756 23.8266C5.67756 25.7332 7.4109 27.2932 9.43757 28.3866C11.4642 29.4666 13.7309 30.0266 16.0242 30.0266C16.7842 30.0266 17.5576 29.9599 18.3042 29.8399C19.5176 29.6399 20.4109 29.3066 21.2909 28.8132C22.2376 28.2799 23.0776 27.5732 23.8242 26.7999L24.0514 26.5207C24.9319 25.3331 25.2463 24.0021 25.0823 22.712C24.7564 20.1494 22.3934 18.1593 19.8304 17.8367C18.6863 17.6928 17.5279 17.8509 16.5042 18.4132C15.3309 19.0532 14.5709 20.6399 14.9576 21.9199C15.2109 22.7599 15.8509 23.3866 17.2509 23.0266C17.8776 22.7999 18.5709 22.2932 18.8109 21.4532C19.0776 20.5466 18.5309 19.6132 17.6776 19.1999C17.0642 18.9066 16.2776 18.6266 15.3576 18.3999C11.1442 17.0932 7.33138 21.4532 10.2509 24.5866" stroke="#040000" stroke-width="1.5"/>
<path id="Vector_3" d="M16.0103 15.0932C18.0796 15.0932 19.757 13.4157 19.757 11.3465C19.757 9.27729 18.0796 7.59985 16.0103 7.59985C13.9411 7.59985 12.2637 9.27729 12.2637 11.3465C12.2637 13.4157 13.9411 15.0932 16.0103 15.0932Z" stroke="#040000" stroke-width="1.5"/>
</g>
</g>
</g>
</g>
</g>
</svg>
