<svg width="24" height="24" viewBox="0 0 24 24" fill="none" xmlns="http://www.w3.org/2000/svg">
<g id="ic_phone" clip-path="url(#clip0_1438_22328)">
<path id="Vector 396" d="M1 17.9474L5.135 13.8124C5.52552 13.4218 6.15869 13.4218 6.54921 13.8124L8.26316 15.5263L15.5263 8.26316L13.8124 6.54921C13.4218 6.15869 13.4218 5.52552 13.8124 5.135L17.2403 1.70711C17.6308 1.31658 18.264 1.31658 18.6545 1.70711L20.4645 3.5171C22.4171 5.46972 22.4171 8.63554 20.4645 10.5882L11.8947 19.1579C10.3666 20.6861 8.26316 22.1842 5.9539 22.1842C4.38751 22.1842 3.42105 21.3537 3.42105 20.3684C3.42105 19.2653 5.09672 18.8028 5.84211 18.7759C9.47368 18.7759 11.036 20.762 13.5 23" stroke="#1D1D1D" stroke-width="1.5" stroke-linejoin="round"/>
</g>
<defs>
<clipPath id="clip0_1438_22328">
<rect width="24" height="24" fill="white"/>
</clipPath>
</defs>
</svg>
