<svg width="54" height="54" viewBox="0 0 54 54" fill="none" xmlns="http://www.w3.org/2000/svg">
<g clip-path="url(#clip0_1437_32736)">
<g filter="url(#filter0_d_1437_32736)">
<mask id="path-1-inside-1_1437_32736" fill="white">
<path fill-rule="evenodd" clip-rule="evenodd" d="M32.8338 44.8772C42.1527 42.3208 49 33.7896 49 23.659C49 11.5088 39.1503 1.65902 27 1.65902C14.8497 1.65902 5 11.5088 5 23.659C5 34.2035 12.4183 43.0153 22.3206 45.1603L25.6308 51.231C26.4377 52.7107 28.5623 52.7107 29.3692 51.231L32.8338 44.8772Z"/>
</mask>
<path fill-rule="evenodd" clip-rule="evenodd" d="M32.8338 44.8772C42.1527 42.3208 49 33.7896 49 23.659C49 11.5088 39.1503 1.65902 27 1.65902C14.8497 1.65902 5 11.5088 5 23.659C5 34.2035 12.4183 43.0153 22.3206 45.1603L25.6308 51.231C26.4377 52.7107 28.5623 52.7107 29.3692 51.231L32.8338 44.8772Z" fill="#F24D4D"/>
<path d="M32.8338 44.8772L32.5692 43.9128L32.1593 44.0253L31.9558 44.3985L32.8338 44.8772ZM22.3206 45.1603L23.1986 44.6816L22.9795 44.2799L22.5323 44.183L22.3206 45.1603ZM25.6308 51.231L24.7528 51.7097L25.6308 51.231ZM29.3692 51.231L30.2472 51.7097L29.3692 51.231ZM48 23.659C48 33.3277 41.465 41.4725 32.5692 43.9128L33.0983 45.8416C42.8404 43.1691 50 34.2515 50 23.659H48ZM27 2.65902C38.598 2.65902 48 12.061 48 23.659H50C50 10.9565 39.7025 0.659016 27 0.659016V2.65902ZM6 23.659C6 12.061 15.402 2.65902 27 2.65902V0.659016C14.2975 0.659016 4 10.9565 4 23.659H6ZM22.5323 44.183C13.0804 42.1356 6 33.723 6 23.659H4C4 34.684 11.7562 43.8951 22.1089 46.1377L22.5323 44.183ZM26.5088 50.7523L23.1986 44.6816L21.4426 45.639L24.7528 51.7097L26.5088 50.7523ZM28.4912 50.7523C28.0634 51.537 26.9366 51.537 26.5088 50.7523L24.7528 51.7097C25.9387 53.8845 29.0613 53.8845 30.2472 51.7097L28.4912 50.7523ZM31.9558 44.3985L28.4912 50.7523L30.2472 51.7097L33.7118 45.3559L31.9558 44.3985Z" fill="#FFF7BE" mask="url(#path-1-inside-1_1437_32736)"/>
</g>
<g clip-path="url(#clip1_1437_32736)">
<path d="M38.9921 28.7337C38.9921 28.7144 38.9921 28.6973 38.99 28.6759L38.9856 20.3205C39.0464 19.8903 38.9139 19.4409 38.5946 19.0985C38.0906 18.557 36.9218 17.5639 34.5496 16.6479C35.3946 15.0171 35.3338 13.3327 34.3649 12.5409C34.0999 12.3225 33.7957 12.1556 33.4677 12.0336C33.4134 11.627 33.2917 11.2439 33.1027 10.91C32.4228 9.70721 31.0216 8.94102 28.9426 8.63711C27.4914 8.42522 26.227 8.52153 26.1727 8.52367C25.8447 8.54936 25.5731 8.7805 25.4971 9.09725C25.4211 9.414 25.5601 9.74145 25.8403 9.91053C26.0728 10.0518 26.5442 10.4563 26.5116 10.8094C26.4942 10.9935 26.277 11.6569 24.1567 12.4809C22.4058 13.1637 21.4521 14.0925 21.3217 15.2439C21.1067 17.1594 22.7838 18.1375 23.0379 18.3066L24.3718 17.5382C23.9221 17.2365 22.7338 16.2755 22.8337 15.4045C22.9119 14.711 23.9004 14.1888 24.715 13.8721C26.8483 13.0417 27.9302 12.0786 28.028 10.9271C28.0562 10.5933 27.9954 10.2915 27.8868 10.024C29.3401 10.1288 31.1476 10.5226 31.7776 11.6377C31.8036 11.6826 31.8275 11.7297 31.8471 11.7768C30.6783 11.7982 29.4943 12.2113 28.7796 12.864C27.9563 13.6131 27.8281 14.6169 28.4451 15.4836C29.1598 16.4853 30.3763 16.6672 31.5429 15.9459C32.4771 15.3681 33.0636 14.5248 33.3308 13.6431C33.3526 13.6602 33.3764 13.6773 33.3982 13.6944C33.7219 13.9598 33.7849 15.0171 33.0506 16.2349C31.9883 17.9984 29.6356 19.4067 26.2227 18.0669C26.0098 17.9834 25.7708 17.9984 25.571 18.1097C25.5449 18.1247 22.9814 19.5393 20.4549 21.0996C15.4149 24.205 15.0152 25.0525 15.0326 25.7117C15.0434 26.0777 15.2563 26.3966 15.6039 26.5657C15.8429 26.6812 16.273 26.7283 16.8357 26.7283C19.901 26.7283 26.8049 25.2773 26.8874 25.258C32.9789 23.9696 35.9855 22.816 37.4649 21.9685L37.4693 28.693C37.4693 28.7166 37.4693 28.7401 37.4714 28.7637V29.0162C37.4888 30.3731 37.4975 31.1907 34.6756 32.4855C31.2497 34.0564 22.5578 36.2865 16.525 35.9633V34.5915C18.3542 34.6385 22.4688 34.2918 27.2633 33.1704C30.1591 32.4919 32.8703 31.8819 35.9095 30.3046C36.3092 30.097 36.5656 29.6904 36.5742 29.2366L36.5916 27.563C36.6003 27.1371 36.3896 26.7433 36.029 26.51C35.6683 26.2767 35.2187 26.2446 34.8254 26.4244C32.9441 27.2826 23.9938 30.219 16.5229 30.2383V29.2238C18.1891 29.2067 25.6122 28.8985 35.4511 25.2409L35.4446 23.595C27.2611 26.9359 18.6127 27.7899 16.2796 27.7278C15.9407 27.7235 15.6213 27.8412 15.378 28.0745C15.1347 28.3078 15 28.6203 15 28.9541V30.5101C15 31.1821 15.5518 31.7321 16.2296 31.7386C16.2991 31.7386 16.3686 31.7386 16.4381 31.7386C23.3638 31.7386 31.9731 29.2473 35.0622 27.9589L35.0514 29.0569C32.2598 30.4865 29.8115 31.0194 27.1373 31.6594C22.1646 32.8493 17.911 33.1468 16.2904 33.089C15.9559 33.0783 15.6213 33.2025 15.3802 33.4315C15.139 33.6605 15 33.9836 15 34.3132V36.2223C15 36.8644 15.4953 37.4016 16.1275 37.4444C16.6945 37.4829 17.2832 37.5 17.8871 37.5C24.0785 37.5 31.9296 35.3962 35.3121 33.8467C38.7575 32.2672 39.0095 30.8439 38.9878 29.0034V28.7337H38.9921ZM30.7304 14.6746C30.0331 15.1048 29.7811 14.7517 29.6855 14.619C29.5552 14.4371 29.477 14.2637 29.8072 13.962C30.2569 13.5532 31.0672 13.2921 31.8449 13.2707C31.6233 13.8678 31.1845 14.3943 30.7326 14.6725L30.7304 14.6746ZM26.8071 23.7449C22.3623 24.6973 18.6974 25.1831 17.0638 25.243C18.4889 24.0124 22.4014 21.5854 25.9968 19.5886C27.8107 20.2264 29.566 20.267 31.0976 19.7041C32.0882 19.3382 32.9767 18.7218 33.6762 17.9256C35.9551 18.7539 37.0152 19.6271 37.4628 20.0958V20.13C36.8262 20.8855 33.6676 22.2767 26.8071 23.7449Z" fill="#FFF7BE"/>
<path d="M15.8176 25.0004L25.1204 18.8637C29.1289 20.5001 32.0375 18.6364 32.9908 17.5C34.1357 17.5 36.8073 19.3183 38 20.2274C37.2844 22.273 22.9736 25.6822 17.9644 26.3641C13.957 26.9095 14.8634 25.6822 15.8176 25.0004Z" fill="#FFF7BE"/>
</g>
</g>
<defs>
<filter id="filter0_d_1437_32736" x="1" y="-2.34094" width="52" height="58.6818" filterUnits="userSpaceOnUse" color-interpolation-filters="sRGB">
<feFlood flood-opacity="0" result="BackgroundImageFix"/>
<feColorMatrix in="SourceAlpha" type="matrix" values="0 0 0 0 0 0 0 0 0 0 0 0 0 0 0 0 0 0 127 0" result="hardAlpha"/>
<feOffset/>
<feGaussianBlur stdDeviation="2"/>
<feComposite in2="hardAlpha" operator="out"/>
<feColorMatrix type="matrix" values="0 0 0 0 0 0 0 0 0 0 0 0 0 0 0 0 0 0 0.18 0"/>
<feBlend mode="normal" in2="BackgroundImageFix" result="effect1_dropShadow_1437_32736"/>
<feBlend mode="normal" in="SourceGraphic" in2="effect1_dropShadow_1437_32736" result="shape"/>
</filter>
<clipPath id="clip0_1437_32736">
<rect width="54" height="54" fill="white"/>
</clipPath>
<clipPath id="clip1_1437_32736">
<rect width="24" height="29" fill="white" transform="translate(15 8.5)"/>
</clipPath>
</defs>
</svg>
