<svg width="72" height="72" viewBox="0 0 72 72" fill="none" xmlns="http://www.w3.org/2000/svg">
<rect width="72" height="72" rx="8" fill="#ECECEC"/>
<path d="M64.291 13.3698H60.9052L63.3012 15.7635L62.0626 17.0009L59.6666 14.6072V18H57.9154V14.6072L55.5194 17.0009L54.2809 15.7635L56.6768 13.3698H53.291V11.6201H56.6768L54.2809 9.22637L55.5194 7.99908L57.9154 10.3928V7H59.6666V10.3928L62.0626 7.99908L63.3012 9.22637L60.9052 11.6201H64.291V13.3698Z" fill="#D2D2D2"/>
<path d="M52.04 46.8066L55.8073 56.2208" stroke="#D2D2D2" stroke-width="3"/>
<path d="M63.8525 53.9944L48.4476 60.1591" stroke="#D2D2D2" stroke-width="3"/>
<path d="M48.4414 13L32.1806 19.5072L41.4277 42.6146C43.2246 47.1048 48.3213 49.2883 52.8116 47.4914C57.3019 45.6945 59.4853 40.5977 57.6884 36.1074L48.4414 13Z" fill="#D2D2D2"/>
<path d="M51.3787 27.7819L38.1716 27.7819L43.5923 40.8012C44.8606 43.8472 48.3404 45.3094 51.4037 44.0836C54.4973 42.8456 56.0016 39.3341 54.7636 36.2405L51.3787 27.7819Z" fill="#ECECEC"/>
<path d="M19.96 46.8066L16.1927 56.2208" stroke="#D2D2D2" stroke-width="3"/>
<path d="M8.14746 53.9944L23.5524 60.1591" stroke="#D2D2D2" stroke-width="3"/>
<path d="M23.5586 13L39.8194 19.5072L30.5723 42.6146C28.7754 47.1048 23.6787 49.2883 19.1884 47.4914C14.6981 45.6945 12.5147 40.5977 14.3116 36.1074L23.5586 13Z" fill="#D2D2D2"/>
<path d="M20.6221 27.782L33.5618 27.7818L28.3541 40.7389C27.1205 43.8084 23.634 45.2989 20.5626 44.0698C17.488 42.8394 15.993 39.3496 17.2234 36.275L20.6221 27.782Z" fill="#ECECEC"/>
</svg>
