<svg width="54" height="54" viewBox="0 0 54 54" fill="none" xmlns="http://www.w3.org/2000/svg">
<g clip-path="url(#clip0_1437_32773)">
<g filter="url(#filter0_d_1437_32773)">
<mask id="path-1-inside-1_1437_32773" fill="white">
<path fill-rule="evenodd" clip-rule="evenodd" d="M33.5319 43.3851C42.4927 40.6862 49 32.5806 49 23.0007C49 11.2145 39.1503 1.65991 27 1.65991C14.8497 1.65991 5 11.2145 5 23.0007C5 33.1619 12.3211 41.6645 22.1256 43.8158L26.3749 51.5501C26.9536 52.6035 28.4672 52.6035 29.046 51.5501L33.5319 43.3851Z"/>
</mask>
<path fill-rule="evenodd" clip-rule="evenodd" d="M33.5319 43.3851C42.4927 40.6862 49 32.5806 49 23.0007C49 11.2145 39.1503 1.65991 27 1.65991C14.8497 1.65991 5 11.2145 5 23.0007C5 33.1619 12.3211 41.6645 22.1256 43.8158L26.3749 51.5501C26.9536 52.6035 28.4672 52.6035 29.046 51.5501L33.5319 43.3851Z" fill="#FFF7BE"/>
<path d="M33.5319 43.3851L33.2435 42.4276L32.8522 42.5454L32.6554 42.9036L33.5319 43.3851ZM22.1256 43.8158L23.0021 43.3343L22.7835 42.9363L22.34 42.839L22.1256 43.8158ZM26.3749 51.5501L27.2513 51.0685L27.2513 51.0685L26.3749 51.5501ZM29.046 51.5501L29.9224 52.0316H29.9224L29.046 51.5501ZM48 23.0007C48 32.11 41.8106 39.8472 33.2435 42.4276L33.8202 44.3426C43.1747 41.5251 50 33.0512 50 23.0007H48ZM27 2.65991C38.6269 2.65991 48 11.7952 48 23.0007H50C50 10.6337 39.6737 0.659912 27 0.659912V2.65991ZM6 23.0007C6 11.7952 15.3731 2.65991 27 2.65991V0.659912C14.3263 0.659912 4 10.6337 4 23.0007H6ZM22.34 42.839C12.9644 40.7819 6 32.6624 6 23.0007H4C4 33.6615 11.6778 42.5472 21.9113 44.7926L22.34 42.839ZM27.2513 51.0685L23.0021 43.3343L21.2492 44.2973L25.4984 52.0316L27.2513 51.0685ZM28.1696 51.0685C27.9706 51.4307 27.4503 51.4307 27.2513 51.0685L25.4984 52.0316C26.457 53.7764 28.9639 53.7764 29.9224 52.0316L28.1696 51.0685ZM32.6554 42.9036L28.1696 51.0685L29.9224 52.0316L34.4083 43.8666L32.6554 42.9036Z" fill="white" mask="url(#path-1-inside-1_1437_32773)"/>
</g>
<g clip-path="url(#clip1_1437_32773)">
<path d="M38.8435 27.9111C38.8435 27.8924 38.8435 27.8757 38.8413 27.8549L38.837 19.7288C38.8971 19.3104 38.7663 18.8733 38.4509 18.5403C37.9533 18.0137 36.7992 17.0479 34.4568 16.157C35.2912 14.5709 35.2312 12.9328 34.2745 12.1626C34.0128 11.9503 33.7125 11.788 33.3886 11.6693C33.3349 11.2738 33.2148 10.9013 33.0282 10.5765C32.3568 9.40675 30.9732 8.66158 28.9204 8.36601C27.4875 8.15994 26.239 8.25361 26.1854 8.25569C25.8615 8.28067 25.5934 8.50547 25.5183 8.81353C25.4432 9.12159 25.5805 9.44005 25.8572 9.60449C26.0867 9.74187 26.5522 10.1353 26.5201 10.4787C26.5029 10.6577 26.2884 11.303 24.1948 12.1043C22.4659 12.7683 21.5242 13.6717 21.3955 14.7915C21.1831 16.6545 22.8391 17.6057 23.0901 17.7701L24.4072 17.0229C23.9631 16.7294 22.7898 15.7948 22.8884 14.9476C22.9657 14.2732 23.9417 13.7654 24.7461 13.4573C26.8525 12.6497 27.9208 11.713 28.0173 10.5932C28.0452 10.2685 27.9851 9.97499 27.8779 9.71481C29.3129 9.8168 31.0976 10.1998 31.7197 11.2842C31.7454 11.328 31.769 11.3737 31.7883 11.4195C30.6343 11.4404 29.4652 11.8421 28.7595 12.4769C27.9465 13.2054 27.82 14.1817 28.4292 15.0247C29.1349 15.9988 30.3361 16.1757 31.488 15.4743C32.4104 14.9123 32.9896 14.0922 33.2534 13.2346C33.2749 13.2512 33.2985 13.2679 33.3199 13.2845C33.6395 13.5426 33.7017 14.5709 32.9767 15.7553C31.9278 17.4704 29.6047 18.84 26.2348 17.537C26.0245 17.4558 25.7886 17.4704 25.5912 17.5786C25.5655 17.5932 23.0343 18.9691 20.5396 20.4865C15.563 23.5067 15.1683 24.331 15.1855 24.9721C15.1962 25.328 15.4064 25.6381 15.7497 25.8026C15.9856 25.915 16.4103 25.9608 16.9659 25.9608C19.9926 25.9608 26.8096 24.5495 26.8911 24.5308C32.9059 23.2777 35.8747 22.1558 37.3355 21.3315L37.3398 27.8716C37.3398 27.8945 37.3398 27.9173 37.3419 27.9402V28.1859C37.3591 29.5055 37.3677 30.3006 34.5812 31.5599C31.1985 33.0877 22.616 35.2566 16.6592 34.9423V33.6081C18.4653 33.6539 22.5281 33.3167 27.2622 32.226C30.1216 31.5662 32.7987 30.973 35.7996 29.4389C36.1943 29.237 36.4474 28.8415 36.456 28.4003L36.4732 26.7725C36.4818 26.3583 36.2737 25.9753 35.9176 25.7484C35.5615 25.5216 35.1175 25.4903 34.7292 25.6652C32.8716 26.4999 24.0339 29.3556 16.657 29.3744V28.3878C18.3023 28.3711 25.632 28.0714 35.347 24.5141L35.3406 22.9135C27.2601 26.1627 18.7206 26.9932 16.4168 26.9328C16.0821 26.9286 15.7668 27.0431 15.5266 27.27C15.2863 27.4969 15.1533 27.8008 15.1533 28.1255V29.6387C15.1533 30.2923 15.6982 30.8273 16.3674 30.8335C16.4361 30.8335 16.5047 30.8335 16.5734 30.8335C23.4118 30.8335 31.9128 28.4107 34.9631 27.1576L34.9523 28.2254C32.1959 29.6158 29.7784 30.1341 27.1378 30.7565C22.2278 31.9138 18.0277 32.2031 16.4275 32.1469C16.0972 32.1365 15.7668 32.2572 15.5287 32.4799C15.2906 32.7027 15.1533 33.017 15.1533 33.3375V35.1942C15.1533 35.8186 15.6424 36.3411 16.2666 36.3827C16.8265 36.4202 17.4078 36.4368 18.0041 36.4368C24.1176 36.4368 31.8699 34.3907 35.2097 32.8838C38.6118 31.3476 38.8606 29.9634 38.8392 28.1734V27.9111H38.8435ZM30.6858 14.2379C29.9972 14.6562 29.7484 14.3128 29.654 14.1837C29.5253 14.0068 29.4481 13.8382 29.7741 13.5447C30.2182 13.1472 31.0183 12.8932 31.7862 12.8724C31.5674 13.4531 31.1341 13.9652 30.6879 14.2358L30.6858 14.2379ZM26.8118 23.0592C22.423 23.9854 18.8042 24.4579 17.1911 24.5162C18.5983 23.3194 22.4616 20.959 26.0117 19.0169C27.8028 19.6372 29.536 19.6768 31.0483 19.1293C32.0264 18.7734 32.9038 18.1739 33.5945 17.3996C35.8447 18.2052 36.8915 19.0544 37.3334 19.5103V19.5436C36.7048 20.2783 33.5859 21.6313 26.8118 23.0592Z" fill="#FF7878"/>
<path d="M16.3558 23.7001L24.9719 18.191C28.9471 19.8437 31.8317 17.9615 32.777 16.8137C33.9125 16.8137 36.562 18.6501 37.7448 19.5683C37.0351 21.6342 23.4507 25.0774 18.4829 25.766C14.5087 26.3169 15.4096 24.3887 16.3558 23.7001Z" fill="#FF7878"/>
</g>
</g>
<defs>
<filter id="filter0_d_1437_32773" x="1" y="-2.34009" width="52" height="58.6802" filterUnits="userSpaceOnUse" color-interpolation-filters="sRGB">
<feFlood flood-opacity="0" result="BackgroundImageFix"/>
<feColorMatrix in="SourceAlpha" type="matrix" values="0 0 0 0 0 0 0 0 0 0 0 0 0 0 0 0 0 0 127 0" result="hardAlpha"/>
<feOffset/>
<feGaussianBlur stdDeviation="2"/>
<feComposite in2="hardAlpha" operator="out"/>
<feColorMatrix type="matrix" values="0 0 0 0 0 0 0 0 0 0 0 0 0 0 0 0 0 0 0.18 0"/>
<feBlend mode="normal" in2="BackgroundImageFix" result="effect1_dropShadow_1437_32773"/>
<feBlend mode="normal" in="SourceGraphic" in2="effect1_dropShadow_1437_32773" result="shape"/>
</filter>
<clipPath id="clip0_1437_32773">
<rect width="54" height="54" fill="white"/>
</clipPath>
<clipPath id="clip1_1437_32773">
<rect width="23.6923" height="28.2061" fill="white" transform="translate(15.1528 8.23059)"/>
</clipPath>
</defs>
</svg>
