<svg width="72" height="72" viewBox="0 0 72 72" fill="none" xmlns="http://www.w3.org/2000/svg">
<rect width="72" height="72" rx="8" fill="#ECECEC"/>
<path fill-rule="evenodd" clip-rule="evenodd" d="M19.7211 16.8835C17.621 16.8967 15.9993 17.4968 14.8625 18.5057C13.5844 19.6465 13.0064 21.2259 13 22.792C13 27.0025 17.181 28.6115 20.7391 29.0237C17.181 29.4391 13 31.0481 13 35.2553C13.0064 36.8215 13.5844 38.4008 14.8657 39.5383C16.0025 40.5472 17.621 41.1506 19.7244 41.1605C19.7372 43.3169 20.3216 44.9786 21.3075 46.1425C22.4186 47.4548 23.9568 48.045 25.4821 48.045C28.9471 48.045 30.9509 44.2697 31.5032 40.7912C32.0555 44.2664 34.0594 48.045 37.5243 48.045C39.0496 48.045 40.5878 47.4548 41.6989 46.1425C42.6816 44.9786 43.2692 43.3169 43.2821 41.1605C45.3822 41.1473 47.0039 40.5472 48.1407 39.5383C49.422 38.4008 50 36.8215 50.0064 35.2553C50.0064 31.0448 45.8254 29.4358 42.2673 29.0237C45.8254 28.6115 50.0064 27.0025 50.0064 22.792C50 21.2259 49.422 19.6465 48.1407 18.509C47.0039 17.5001 45.3854 16.8967 43.2821 16.8868C43.2692 14.7305 42.6848 13.0687 41.6989 11.9048C40.5846 10.5892 39.0464 9.99902 37.5211 9.99902C34.0562 9.99902 32.0523 13.7743 31.5 17.2528C30.9445 13.7743 28.9438 9.99902 25.4789 9.99902C23.9536 9.99902 22.4154 10.5892 21.3043 11.9015C20.3216 13.0654 19.734 14.7272 19.7211 16.8835Z" fill="#D2D2D2"/>
<path fill-rule="evenodd" clip-rule="evenodd" d="M30.6172 38.2295C30.6172 38.2295 26.7194 65.2531 46.2759 64.9992L46.8676 62.3911C46.8676 62.3911 41.0809 63.6935 35.8658 56.4002C33.1877 52.6546 32.4555 46.9109 32.25 38.2295H30.6172Z" fill="url(#paint0_linear_2225_53392)"/>
<path d="M59 55.3688H55.6142L58.0102 57.7625L56.7716 58.9999L54.3756 56.6062V59.999H52.6244V56.6062L50.2284 58.9999L48.9898 57.7625L51.3858 55.3688H48V53.6191H51.3858L48.9898 51.2254L50.2284 49.9981L52.6244 52.3918V48.999H54.3756V52.3918L56.7716 49.9981L58.0102 51.2254L55.6142 53.6191H59V55.3688Z" fill="#D2D2D2"/>
<defs>
<linearGradient id="paint0_linear_2225_53392" x1="30.8652" y1="41.4991" x2="41.8652" y2="63.9991" gradientUnits="userSpaceOnUse">
<stop offset="0.274545" stop-color="#D2D2D2"/>
<stop offset="1" stop-color="#D2D2D2" stop-opacity="0"/>
</linearGradient>
</defs>
</svg>
