<svg width="72" height="72" viewBox="0 0 72 72" fill="none" xmlns="http://www.w3.org/2000/svg">
<rect width="72" height="72" rx="8" fill="#ECECEC"/>
<path fill-rule="evenodd" clip-rule="evenodd" d="M34.5976 34.7253L34.634 33.4931H39.8055L40.183 29.7603L40.3295 34.7256L43.4694 35.1343L47.4299 22.1744C48.127 19.8934 46.5936 17.518 44.2249 17.2096C42.9676 17.046 41.7959 17.5076 40.9943 18.3368C40.4758 16.766 38.9964 15.6111 37.2242 15.6111C35.5793 15.6111 34.1825 16.6076 33.5774 18.0123C32.8035 17.391 31.7846 17.0685 30.7023 17.2094C28.3336 17.5178 26.8002 19.8931 27.4973 22.1742L31.4578 35.1341L34.5976 34.7253Z" fill="#D2D2D2"/>
<path fill-rule="evenodd" clip-rule="evenodd" d="M29.6146 28.8991C25.4421 30.6873 19.5989 34.7746 16.7882 44.482C15.0001 54.1894 20.1993 61.0828 31.493 62.1046L38.0389 62.1205L38.0389 62.1123L43.6393 62.1123C54.933 61.0904 60.0165 54.1894 58.2284 44.482C55.4176 34.7746 49.5744 30.6873 45.402 28.8991L38.0447 28.8991L36.9718 28.8991L29.6146 28.8991Z" fill="#D2D2D2"/>
<rect x="26.6943" y="26.3491" width="20.8018" height="3.06549" rx="1.53275" fill="#ECECEC"/>
<circle cx="37.4966" cy="46.2706" r="10.2183" fill="#ECECEC"/>
<path d="M43.6282 47.2402H39.854L42.5248 49.9085L41.1441 51.2879L38.4733 48.6196V52.4016H36.5211V48.6196L33.8503 51.2879L32.4696 49.9085L35.1404 47.2402H31.3662V45.2898H35.1404L32.4696 42.6214L33.8503 41.2533L36.5211 43.9217V40.1396H38.4733V43.9217L41.1441 41.2533L42.5248 42.6214L39.854 45.2898H43.6282V47.2402Z" fill="#D2D2D2"/>
<path d="M21.9121 13.3558H18.5263L20.9223 15.7496L19.6837 16.987L17.2877 14.5933V17.9861H15.5365V14.5933L13.1405 16.987L11.902 15.7496L14.2979 13.3558H10.9121V11.6062H14.2979L11.902 9.21246L13.1405 7.98516L15.5365 10.3789V6.98608H17.2877V10.3789L19.6837 7.98516L20.9223 9.21246L18.5263 11.6062H21.9121V13.3558Z" fill="#D2D2D2"/>
</svg>
