<svg width="72" height="72" viewBox="0 0 72 72" fill="none" xmlns="http://www.w3.org/2000/svg">
<rect width="72" height="72" rx="8" fill="#ECECEC"/>
<path d="M41 15.3698H37.6142L40.0102 17.7635L38.7716 19.0009L36.3756 16.6072V20H34.6244V16.6072L32.2284 19.0009L30.9898 17.7635L33.3858 15.3698H30V13.6201H33.3858L30.9898 11.2264L32.2284 9.99908L34.6244 12.3928V9H36.3756V12.3928L38.7716 9.99908L40.0102 11.2264L37.6142 13.6201H41V15.3698Z" fill="#D2D2D2"/>
<rect x="11" y="44" width="50" height="19" rx="4" fill="#D2D2D2"/>
<path d="M19 36C19 33.7909 20.7909 32 23 32H49C51.2091 32 53 33.7909 53 36V51H19V36Z" fill="#D2D2D2"/>
<rect x="33" y="22" width="5" height="14" fill="#D2D2D2"/>
</svg>
