<svg width="20" height="20" viewBox="0 0 20 20" fill="none" xmlns="http://www.w3.org/2000/svg">
<path fill-rule="evenodd" clip-rule="evenodd" d="M10.0004 17.5001C10.0004 17.5001 16.6671 12.4622 16.6671 8.14402C16.6671 4.61607 13.6315 1.66675 10.0004 1.66675C6.3693 1.66675 3.33374 4.61607 3.33374 8.14402C3.33374 12.4622 10.0004 17.5001 10.0004 17.5001ZM12.5004 8.33341C12.5004 9.71413 11.3811 10.8334 10.0004 10.8334C8.61969 10.8334 7.50041 9.71413 7.50041 8.33341C7.50041 6.9527 8.61969 5.83341 10.0004 5.83341C11.3811 5.83341 12.5004 6.9527 12.5004 8.33341Z" fill="#6A6A6A"/>
<path d="M10.0004 17.5001L9.7492 17.8325C9.89784 17.9448 10.103 17.9448 10.2516 17.8325L10.0004 17.5001ZM16.2504 8.14402C16.2504 9.12092 15.8713 10.1713 15.2648 11.2189C14.6607 12.2623 13.8493 13.2717 13.0281 14.1582C12.2081 15.0434 11.3868 15.7972 10.7697 16.3301C10.4615 16.5963 10.205 16.8067 10.0262 16.9501C9.93678 17.0218 9.86683 17.0767 9.81957 17.1135C9.79594 17.1318 9.778 17.1457 9.76613 17.1547C9.7602 17.1593 9.75579 17.1627 9.75295 17.1648C9.75153 17.1659 9.7505 17.1667 9.74988 17.1671C9.74956 17.1674 9.74935 17.1675 9.74924 17.1676C9.74918 17.1677 9.74917 17.1677 9.74914 17.1677C9.74916 17.1677 9.7492 17.1677 10.0004 17.5001C10.2516 17.8325 10.2517 17.8324 10.2518 17.8323C10.2519 17.8323 10.252 17.8322 10.2522 17.8321C10.2525 17.8319 10.2529 17.8316 10.2534 17.8312C10.2544 17.8304 10.2557 17.8294 10.2575 17.828C10.2611 17.8253 10.2663 17.8214 10.2729 17.8163C10.2863 17.806 10.3058 17.791 10.331 17.7714C10.3814 17.7323 10.4547 17.6747 10.5475 17.6002C10.7333 17.4513 10.9976 17.2344 11.3144 16.9608C11.9474 16.4141 12.7927 15.6386 13.6394 14.7245C14.4848 13.8118 15.3401 12.7521 15.986 11.6364C16.6295 10.5248 17.0837 9.32621 17.0837 8.14402H16.2504ZM10.0004 2.08341C13.4128 2.08341 16.2504 4.85742 16.2504 8.14402H17.0837C17.0837 4.37471 13.8502 1.25008 10.0004 1.25008V2.08341ZM3.75041 8.14402C3.75041 4.85742 6.58801 2.08341 10.0004 2.08341V1.25008C6.15058 1.25008 2.91707 4.37471 2.91707 8.14402H3.75041ZM10.0004 17.5001C10.2516 17.1677 10.2517 17.1677 10.2517 17.1677C10.2516 17.1677 10.2516 17.1677 10.2516 17.1676C10.2515 17.1675 10.2513 17.1674 10.2509 17.1671C10.2503 17.1667 10.2493 17.1659 10.2479 17.1648C10.245 17.1627 10.2406 17.1593 10.2347 17.1547C10.2228 17.1457 10.2049 17.1318 10.1812 17.1135C10.134 17.0767 10.064 17.0218 9.97462 16.9501C9.79578 16.8067 9.53929 16.5963 9.23108 16.3301C8.61406 15.7972 7.79269 15.0434 6.97275 14.1582C6.15151 13.2717 5.34009 12.2623 4.736 11.2189C4.12954 10.1713 3.75041 9.12092 3.75041 8.14402H2.91707C2.91707 9.32621 3.37128 10.5248 4.01481 11.6364C4.66072 12.7521 5.51597 13.8118 6.3614 14.7245C7.20812 15.6386 8.05342 16.4141 8.6864 16.9608C9.00319 17.2344 9.26754 17.4513 9.45327 17.6002C9.54616 17.6747 9.61943 17.7323 9.66983 17.7714C9.69503 17.791 9.71452 17.806 9.72788 17.8163C9.73456 17.8214 9.73971 17.8253 9.74328 17.828C9.74507 17.8294 9.74646 17.8304 9.74745 17.8312C9.74794 17.8316 9.74833 17.8319 9.74863 17.8321C9.74877 17.8322 9.74892 17.8323 9.74899 17.8323C9.74911 17.8324 9.7492 17.8325 10.0004 17.5001ZM10.0004 11.2501C11.6112 11.2501 12.9171 9.94425 12.9171 8.33341H12.0837C12.0837 9.48401 11.151 10.4167 10.0004 10.4167V11.2501ZM7.08374 8.33341C7.08374 9.94425 8.38957 11.2501 10.0004 11.2501V10.4167C8.84981 10.4167 7.91707 9.48401 7.91707 8.33341H7.08374ZM10.0004 5.41675C8.38957 5.41675 7.08374 6.72258 7.08374 8.33341H7.91707C7.91707 7.18282 8.84981 6.25008 10.0004 6.25008V5.41675ZM12.9171 8.33341C12.9171 6.72258 11.6112 5.41675 10.0004 5.41675V6.25008C11.151 6.25008 12.0837 7.18282 12.0837 8.33341H12.9171Z" fill="#6A6A6A"/>
</svg>
