<svg width="42" height="42" viewBox="0 0 42 42" fill="none" xmlns="http://www.w3.org/2000/svg">
<g clip-path="url(#clip0_1437_18619)">
<g filter="url(#filter0_d_1437_18619)">
<mask id="path-1-inside-1_1437_18619" fill="white">
<path fill-rule="evenodd" clip-rule="evenodd" d="M25.6626 34.0292C32.0847 32.059 36.75 26.1257 36.75 19.1123C36.75 10.4899 29.6985 3.5 21 3.5C12.3015 3.5 5.25 10.4899 5.25 19.1123C5.25 26.5468 10.4924 32.7676 17.5127 34.3406L20.1679 39.2792C20.7431 40.3491 22.2776 40.3491 22.8528 39.2792L25.5828 34.2015C25.6133 34.1446 25.6399 34.0871 25.6626 34.0292Z"/>
</mask>
<path fill-rule="evenodd" clip-rule="evenodd" d="M25.6626 34.0292C32.0847 32.059 36.75 26.1257 36.75 19.1123C36.75 10.4899 29.6985 3.5 21 3.5C12.3015 3.5 5.25 10.4899 5.25 19.1123C5.25 26.5468 10.4924 32.7676 17.5127 34.3406L20.1679 39.2792C20.7431 40.3491 22.2776 40.3491 22.8528 39.2792L25.5828 34.2015C25.6133 34.1446 25.6399 34.0871 25.6626 34.0292Z" fill="#F24D4D"/>
<path d="M25.6626 34.0292L25.3693 33.0732L24.9075 33.2148L24.7314 33.6646L25.6626 34.0292ZM17.5127 34.3406L18.3935 33.8671L18.1771 33.4647L17.7313 33.3648L17.5127 34.3406ZM20.1679 39.2792L19.2871 39.7527H19.2871L20.1679 39.2792ZM22.8528 39.2792L23.7336 39.7527L22.8528 39.2792ZM25.5828 34.2015L26.4636 34.675L26.4636 34.675L25.5828 34.2015ZM35.75 19.1123C35.75 25.6692 31.3881 31.2267 25.3693 33.0732L25.9558 34.9852C32.7813 32.8913 37.75 26.5822 37.75 19.1123H35.75ZM21 4.5C29.1545 4.5 35.75 11.0504 35.75 19.1123H37.75C37.75 9.92932 30.2425 2.5 21 2.5V4.5ZM6.25 19.1123C6.25 11.0504 12.8455 4.5 21 4.5V2.5C11.7575 2.5 4.25 9.92932 4.25 19.1123H6.25ZM17.7313 33.3648C11.1521 31.8906 6.25 26.063 6.25 19.1123H4.25C4.25 27.0307 9.8326 33.6446 17.2941 35.3164L17.7313 33.3648ZM21.0486 38.8056L18.3935 33.8671L16.6319 34.8141L19.2871 39.7527L21.0486 38.8056ZM21.972 38.8056C21.7742 39.1736 21.2465 39.1736 21.0486 38.8056L19.2871 39.7527C20.2397 41.5246 22.781 41.5246 23.7336 39.7527L21.972 38.8056ZM24.702 33.7279L21.972 38.8056L23.7336 39.7527L26.4636 34.675L24.702 33.7279ZM24.7314 33.6646C24.7234 33.6851 24.7137 33.7062 24.702 33.7279L26.4636 34.675C26.513 34.583 26.5564 34.4891 26.5937 34.3937L24.7314 33.6646Z" fill="#FFF7BE" mask="url(#path-1-inside-1_1437_18619)"/>
</g>
<g clip-path="url(#clip1_1437_18619)">
<path d="M29.4766 22.6969C29.4766 22.6832 29.4766 22.671 29.4751 22.6558L29.472 16.7129C29.515 16.4069 29.4213 16.0873 29.1956 15.8437C28.8393 15.4586 28.0131 14.7522 26.3361 14.1007C26.9335 12.9408 26.8905 11.7428 26.2056 11.1795C26.0183 11.0243 25.8033 10.9055 25.5714 10.8187C25.533 10.5295 25.447 10.257 25.3134 10.0196C24.8327 9.16406 23.8422 8.6191 22.3726 8.40294C21.3467 8.25223 20.453 8.32074 20.4146 8.32226C20.1827 8.34053 19.9907 8.50493 19.937 8.73022C19.8832 8.95551 19.9815 9.18842 20.1796 9.30868C20.3439 9.40915 20.6772 9.69685 20.6541 9.94802C20.6419 10.0789 20.4883 10.5508 18.9895 11.1369C17.7517 11.6225 17.0776 12.2832 16.9854 13.1021C16.8334 14.4645 18.0189 15.1602 18.1986 15.2805L19.1415 14.734C18.8236 14.5193 17.9836 13.8359 18.0542 13.2163C18.1095 12.7231 18.8083 12.3517 19.3841 12.1264C20.8922 11.5357 21.6569 10.8507 21.7261 10.0317C21.746 9.79427 21.703 9.57964 21.6262 9.38936C22.6536 9.46395 23.9313 9.74404 24.3766 10.5371C24.3951 10.5691 24.4119 10.6026 24.4258 10.6361C23.5996 10.6513 22.7626 10.9451 22.2574 11.4094C21.6754 11.9422 21.5848 12.6561 22.0209 13.2726C22.5261 13.985 23.3861 14.1144 24.2108 13.6014C24.8711 13.1904 25.2857 12.5906 25.4746 11.9635C25.49 11.9757 25.5069 11.9878 25.5222 12C25.7511 12.1888 25.7956 12.9408 25.2765 13.8069C24.5256 15.0613 22.8625 16.0629 20.4499 15.11C20.2994 15.0506 20.1305 15.0613 19.9892 15.1404C19.9708 15.1511 18.1587 16.1573 16.3727 17.267C12.8099 19.4758 12.5274 20.0786 12.5396 20.5475C12.5473 20.8078 12.6978 21.0346 12.9435 21.1548C13.1124 21.237 13.4165 21.2705 13.8142 21.2705C15.9811 21.2705 20.8615 20.2384 20.9198 20.2247C25.2259 19.3083 27.3512 18.4878 28.397 17.885L28.4001 22.6679C28.4001 22.6847 28.4001 22.7014 28.4016 22.7182V22.8978C28.4139 23.8629 28.4201 24.4444 26.4252 25.3654C24.0035 26.4827 17.8592 28.0689 13.5946 27.839V26.8633C14.8877 26.8968 17.7963 26.6502 21.1855 25.8525C23.2325 25.3699 25.1491 24.9361 27.2975 23.8142C27.58 23.6665 27.7613 23.3773 27.7674 23.0546L27.7797 21.8642C27.7858 21.5613 27.6369 21.2812 27.3819 21.1153C27.127 20.9493 26.8091 20.9265 26.5312 21.0544C25.2013 21.6648 18.8743 23.7533 13.5931 23.767V23.0455C14.771 23.0333 20.0184 22.8141 26.9735 20.2126L26.9688 19.0419C21.184 21.4182 15.0704 22.0256 13.4211 21.9814C13.1815 21.9784 12.9558 22.0621 12.7838 22.228C12.6118 22.3939 12.5166 22.6162 12.5166 22.8537V23.9603C12.5166 24.4383 12.9067 24.8295 13.3858 24.8341C13.4349 24.8341 13.4841 24.8341 13.5332 24.8341C18.429 24.8341 24.5148 23.0622 26.6986 22.1458L26.6909 22.9267C24.7175 23.9436 22.9868 24.3226 21.0964 24.7778C17.5813 25.6242 14.5744 25.8358 13.4288 25.7947C13.1923 25.787 12.9558 25.8753 12.7853 26.0382C12.6149 26.2011 12.5166 26.431 12.5166 26.6654V28.0232C12.5166 28.4799 12.8667 28.862 13.3136 28.8924C13.7144 28.9198 14.1306 28.932 14.5575 28.932C18.9342 28.932 24.4841 27.4356 26.8752 26.3335C29.3108 25.2101 29.4889 24.1978 29.4735 22.8887V22.6969H29.4766ZM23.6364 12.6972C23.1435 13.0032 22.9653 12.752 22.8978 12.6576C22.8056 12.5282 22.7503 12.4049 22.9838 12.1903C23.3017 11.8995 23.8745 11.7138 24.4242 11.6986C24.2676 12.1233 23.9574 12.4978 23.638 12.6957L23.6364 12.6972ZM20.863 19.1485C17.721 19.8259 15.1303 20.1715 13.9755 20.2141C14.9829 19.3388 17.7486 17.6126 20.2902 16.1923C21.5725 16.6459 22.8133 16.6748 23.896 16.2745C24.5962 16.0142 25.2243 15.5758 25.7188 15.0095C27.3297 15.5986 28.0791 16.2197 28.3955 16.5531V16.5774C27.9455 17.1148 25.7127 18.1042 20.863 19.1485Z" fill="#FFF7BE"/>
<path d="M13.3807 20.1209L19.9856 15.5883C22.8315 16.797 24.8966 15.4204 25.5734 14.5811C26.3863 14.5811 28.283 15.924 29.1298 16.5955C28.6217 18.1064 18.4614 20.6245 14.9049 21.1282C12.0598 21.5311 12.7033 20.6245 13.3807 20.1209Z" fill="#FFF7BE"/>
</g>
</g>
<defs>
<filter id="filter0_d_1437_18619" x="1.25" y="-0.5" width="39.5" height="44.5816" filterUnits="userSpaceOnUse" color-interpolation-filters="sRGB">
<feFlood flood-opacity="0" result="BackgroundImageFix"/>
<feColorMatrix in="SourceAlpha" type="matrix" values="0 0 0 0 0 0 0 0 0 0 0 0 0 0 0 0 0 0 127 0" result="hardAlpha"/>
<feOffset/>
<feGaussianBlur stdDeviation="2"/>
<feComposite in2="hardAlpha" operator="out"/>
<feColorMatrix type="matrix" values="0 0 0 0 0 0 0 0 0 0 0 0 0 0 0 0 0 0 0.18 0"/>
<feBlend mode="normal" in2="BackgroundImageFix" result="effect1_dropShadow_1437_18619"/>
<feBlend mode="normal" in="SourceGraphic" in2="effect1_dropShadow_1437_18619" result="shape"/>
</filter>
<clipPath id="clip0_1437_18619">
<rect width="42" height="42" fill="white"/>
</clipPath>
<clipPath id="clip1_1437_18619">
<rect width="16.9615" height="20.628" fill="white" transform="translate(12.52 8.30396)"/>
</clipPath>
</defs>
</svg>
