<svg width="42" height="42" viewBox="0 0 42 42" fill="none" xmlns="http://www.w3.org/2000/svg">
<g clip-path="url(#clip0_1437_18618)">
<g filter="url(#filter0_d_1437_18618)">
<mask id="path-1-inside-1_1437_18618" fill="white">
<path fill-rule="evenodd" clip-rule="evenodd" d="M25.6563 34.0211C32.078 32.052 36.7432 26.12 36.7432 19.1079C36.7432 10.4879 29.6932 3.5 20.9966 3.5C12.3 3.5 5.25 10.4879 5.25 19.1079C5.25 26.5395 10.49 32.7579 17.5076 34.3313L20.1628 39.2697C20.7379 40.3393 22.272 40.3393 22.8471 39.2697L25.5765 34.1935C25.607 34.1366 25.6336 34.0791 25.6563 34.0211Z"/>
</mask>
<path fill-rule="evenodd" clip-rule="evenodd" d="M25.6563 34.0211C32.078 32.052 36.7432 26.12 36.7432 19.1079C36.7432 10.4879 29.6932 3.5 20.9966 3.5C12.3 3.5 5.25 10.4879 5.25 19.1079C5.25 26.5395 10.49 32.7579 17.5076 34.3313L20.1628 39.2697C20.7379 40.3393 22.272 40.3393 22.8471 39.2697L25.5765 34.1935C25.607 34.1366 25.6336 34.0791 25.6563 34.0211Z" fill="#FFF7BE"/>
<path d="M25.6563 34.0211L25.3631 33.0651L24.9012 33.2067L24.7251 33.6566L25.6563 34.0211ZM17.5076 34.3313L18.3884 33.8578L18.1721 33.4555L17.7264 33.3556L17.5076 34.3313ZM20.1628 39.2697L21.0436 38.7961L20.1628 39.2697ZM22.8471 39.2697L21.9664 38.7961L22.8471 39.2697ZM25.5765 34.1935L26.4572 34.6671L26.4572 34.6671L25.5765 34.1935ZM35.7432 19.1079C35.7432 25.6633 31.3815 31.2196 25.3631 33.0651L25.9494 34.9772C32.7745 32.8844 37.7432 26.5766 37.7432 19.1079H35.7432ZM20.9966 4.5C29.1493 4.5 35.7432 11.0485 35.7432 19.1079H37.7432C37.7432 9.92729 30.2371 2.5 20.9966 2.5V4.5ZM6.25 19.1079C6.25 11.0485 12.8439 4.5 20.9966 4.5V2.5C11.7561 2.5 4.25 9.92729 4.25 19.1079H6.25ZM17.7264 33.3556C11.1498 31.881 6.25 26.0556 6.25 19.1079H4.25C4.25 27.0233 9.83024 33.6348 17.2888 35.3071L17.7264 33.3556ZM21.0436 38.7961L18.3884 33.8578L16.6269 34.8049L19.2821 39.7432L21.0436 38.7961ZM21.9664 38.7961C21.7687 39.1638 21.2413 39.1638 21.0436 38.7961L19.2821 39.7432C20.2346 41.5148 22.7754 41.5148 23.7279 39.7432L21.9664 38.7961ZM24.6957 33.72L21.9664 38.7961L23.7279 39.7432L26.4572 34.6671L24.6957 33.72ZM24.7251 33.6566C24.7171 33.6771 24.7074 33.6983 24.6957 33.72L26.4572 34.6671C26.5067 34.575 26.5501 34.4811 26.5875 34.3856L24.7251 33.6566Z" fill="white" mask="url(#path-1-inside-1_1437_18618)"/>
</g>
<g clip-path="url(#clip1_1437_18618)">
<path d="M29.4739 22.6928C29.4739 22.6791 29.4739 22.6669 29.4724 22.6517L29.4693 16.7105C29.5123 16.4046 29.4186 16.0851 29.1929 15.8416C28.8367 15.4565 28.0107 14.7504 26.3341 14.0991C26.9314 12.9395 26.8884 11.7418 26.2036 11.1787C26.0163 11.0235 25.8014 10.9048 25.5695 10.818C25.5311 10.5289 25.4452 10.2565 25.3116 10.0191C24.831 9.16382 23.8407 8.61901 22.3714 8.40291C21.3458 8.25225 20.4522 8.32073 20.4138 8.32225C20.182 8.34052 19.9901 8.50487 19.9364 8.7301C19.8826 8.95533 19.9809 9.18817 20.1789 9.30839C20.3432 9.40883 20.6764 9.69646 20.6534 9.94756C20.6411 10.0784 20.4875 10.5502 18.989 11.1361C17.7516 11.6216 17.0775 12.282 16.9854 13.1008C16.8334 14.4628 18.0187 15.1583 18.1983 15.2785L19.141 14.7322C18.8232 14.5176 17.9834 13.8343 18.054 13.2149C18.1093 12.7218 18.8079 12.3505 19.3836 12.1253C20.8913 11.5348 21.6559 10.85 21.725 10.0313C21.745 9.79385 21.702 9.57928 21.6252 9.38905C22.6524 9.46362 23.9298 9.74363 24.375 10.5365C24.3935 10.5685 24.4103 10.6019 24.4242 10.6354C23.5981 10.6506 22.7614 10.9444 22.2563 11.4085C21.6744 11.9411 21.5838 12.6549 22.0198 13.2712C22.5249 13.9834 23.3847 14.1128 24.2092 13.5999C24.8694 13.189 25.284 12.5894 25.4728 11.9624C25.4882 11.9746 25.505 11.9868 25.5204 11.999C25.7492 12.1877 25.7937 12.9395 25.2747 13.8054C24.524 15.0594 22.8612 16.0607 20.4492 15.1081C20.2987 15.0487 20.1298 15.0594 19.9886 15.1385C19.9701 15.1491 18.1584 16.1551 16.3728 17.2645C12.8108 19.4726 12.5283 20.0753 12.5406 20.544C12.5483 20.8042 12.6987 21.031 12.9444 21.1512C13.1133 21.2334 13.4173 21.2669 13.8149 21.2669C15.9813 21.2669 20.8606 20.2351 20.919 20.2214C25.2241 19.3052 27.349 18.485 28.3946 17.8823L28.3976 22.6639C28.3976 22.6806 28.3976 22.6974 28.3992 22.7141V22.8937C28.4114 23.8585 28.4176 24.4399 26.4232 25.3606C24.0019 26.4776 17.859 28.0633 13.5954 27.8335V26.858C14.8881 26.8915 17.7961 26.645 21.1846 25.8475C23.2312 25.3651 25.1473 24.9314 27.2953 23.8098C27.5778 23.6622 27.7589 23.3731 27.7651 23.0504L27.7773 21.8604C27.7835 21.5575 27.6346 21.2775 27.3797 21.1116C27.1248 20.9458 26.807 20.9229 26.5291 21.0508C25.1995 21.661 18.8739 23.7489 13.5939 23.7626V23.0413C14.7715 23.0291 20.0177 22.81 26.9713 20.2092L26.9667 19.0389C21.1831 21.4145 15.0709 22.0217 13.4219 21.9775C13.1824 21.9745 12.9567 22.0582 12.7847 22.2241C12.6128 22.39 12.5176 22.6121 12.5176 22.8496V23.9559C12.5176 24.4338 12.9076 24.8249 13.3866 24.8294C13.4357 24.8294 13.4848 24.8294 13.534 24.8294C18.4286 24.8294 24.5132 23.058 26.6965 22.1419L26.6888 22.9226C24.7159 23.9392 22.9855 24.3181 21.0955 24.7731C17.5811 25.6193 14.5749 25.8308 13.4296 25.7897C13.1931 25.7821 12.9567 25.8704 12.7863 26.0332C12.6158 26.196 12.5176 26.4258 12.5176 26.6602V28.0177C12.5176 28.4742 12.8676 28.8562 13.3144 28.8866C13.7151 28.914 14.1312 28.9262 14.558 28.9262C18.9338 28.9262 24.4825 27.4302 26.873 26.3284C29.3081 25.2053 29.4862 24.1933 29.4708 22.8846V22.6928H29.4739ZM23.635 12.696C23.1421 13.0019 22.9641 12.7508 22.8965 12.6564C22.8044 12.527 22.7491 12.4038 22.9825 12.1892C23.3003 11.8985 23.873 11.7129 24.4226 11.6977C24.266 12.1222 23.9559 12.4966 23.6365 12.6944L23.635 12.696ZM20.8622 19.1454C17.7209 19.8226 15.1307 20.1681 13.9762 20.2107C14.9833 19.3357 17.7485 17.6099 20.2895 16.1901C21.5715 16.6436 22.8121 16.6725 23.8945 16.2722C24.5946 16.012 25.2225 15.5737 25.7169 15.0076C27.3275 15.5966 28.0767 16.2175 28.393 16.5507V16.5751C27.9432 17.1123 25.7108 18.1015 20.8622 19.1454Z" fill="#FF7878"/>
<path d="M13.3781 19.6142L19.5451 15.5863C22.3904 16.7947 24.455 15.4185 25.1317 14.5793C25.9444 14.5793 27.8408 15.922 28.6873 16.5933C28.1794 18.1037 18.4563 20.6211 14.9006 21.1246C12.0561 21.5274 12.7008 20.1176 13.3781 19.6142Z" fill="#FF7878"/>
</g>
</g>
<defs>
<filter id="filter0_d_1437_18618" x="1.25" y="-0.5" width="39.4932" height="44.5719" filterUnits="userSpaceOnUse" color-interpolation-filters="sRGB">
<feFlood flood-opacity="0" result="BackgroundImageFix"/>
<feColorMatrix in="SourceAlpha" type="matrix" values="0 0 0 0 0 0 0 0 0 0 0 0 0 0 0 0 0 0 127 0" result="hardAlpha"/>
<feOffset/>
<feGaussianBlur stdDeviation="2"/>
<feComposite in2="hardAlpha" operator="out"/>
<feColorMatrix type="matrix" values="0 0 0 0 0 0 0 0 0 0 0 0 0 0 0 0 0 0 0.18 0"/>
<feBlend mode="normal" in2="BackgroundImageFix" result="effect1_dropShadow_1437_18618"/>
<feBlend mode="normal" in="SourceGraphic" in2="effect1_dropShadow_1437_18618" result="shape"/>
</filter>
<clipPath id="clip0_1437_18618">
<rect width="42" height="42" fill="white"/>
</clipPath>
<clipPath id="clip1_1437_18618">
<rect width="16.9579" height="20.6222" fill="white" transform="translate(12.5171 8.30396)"/>
</clipPath>
</defs>
</svg>
