<svg width="20" height="20" viewBox="0 0 20 20" fill="none" xmlns="http://www.w3.org/2000/svg">
<path d="M10.8743 11.6516H9.489L9.34831 6.16462H11.015L10.8743 11.6516ZM9.28337 13.1884C9.27976 13.0261 9.31764 12.8764 9.39701 12.7393C9.47998 12.5986 9.59181 12.4886 9.73251 12.4092C9.8732 12.3298 10.0265 12.2902 10.1925 12.2902C10.3512 12.2902 10.4991 12.3298 10.6362 12.4092C10.7733 12.4886 10.8833 12.5986 10.9663 12.7393C11.0492 12.8764 11.0907 13.0261 11.0907 13.1884C11.0907 13.3544 11.0492 13.5077 10.9663 13.6484C10.8833 13.7855 10.7733 13.8955 10.6362 13.9785C10.4991 14.0578 10.3512 14.0975 10.1925 14.0975C10.0265 14.0975 9.8732 14.0578 9.73251 13.9785C9.59181 13.8955 9.47998 13.7855 9.39701 13.6484C9.31764 13.5077 9.27976 13.3544 9.28337 13.1884Z" fill="#FFF7BE"/>
<circle cx="10.0002" cy="10.0001" r="7.5" stroke="#FFF7BE" stroke-width="1.36364"/>
</svg>
