<svg width="24" height="24" viewBox="0 0 24 24" fill="none" xmlns="http://www.w3.org/2000/svg">
<g id="ic_time">
<path id="Union" fill-rule="evenodd" clip-rule="evenodd" d="M11.2501 3.36987C6.81728 3.74983 3.33789 7.46841 3.33789 11.9997C3.33789 16.7834 7.21589 20.6614 11.9997 20.6614C16.7834 20.6614 20.6614 16.7834 20.6614 11.9997C20.6614 8.79452 18.921 5.99501 16.33 4.49622L17.0811 3.19781C20.1165 4.9537 22.1614 8.23742 22.1614 11.9997C22.1614 17.6118 17.6118 22.1614 11.9997 22.1614C6.38747 22.1614 1.83789 17.6118 1.83789 11.9997C1.83789 6.38747 6.38747 1.83789 11.9997 1.83789V1.87001H12.7501V9.50881C13.6259 9.67422 14.5178 9.95525 15.3452 10.2699C16.5292 10.7201 17.6255 11.2563 18.4224 11.6776C18.8219 11.8888 19.1486 12.0724 19.3765 12.2038C19.4905 12.2695 19.5798 12.3223 19.6413 12.359C19.6721 12.3773 19.6959 12.3917 19.7123 12.4016L19.7314 12.4132L19.7367 12.4165L19.7383 12.4174L19.7388 12.4177C19.739 12.4179 19.7391 12.418 19.3464 13.0569C18.9536 13.6959 18.9537 13.6959 18.9538 13.696L18.9538 13.6959L18.9532 13.6956L18.9499 13.6936L18.935 13.6845L18.8727 13.6471C18.8171 13.6139 18.7342 13.565 18.6271 13.5032C18.4128 13.3796 18.1023 13.2051 17.7214 13.0037C16.9574 12.5999 15.9197 12.0931 14.8121 11.672C14.1208 11.4091 13.4189 11.1861 12.7501 11.0395V12.1084C12.7501 14.0513 10.5757 15.4145 8.85395 14.2964L9.26243 13.6674L8.85447 14.2967L8.85395 14.2964C8.37828 13.9879 7.91692 13.4311 7.73679 12.7441C7.54432 12.0101 7.6879 11.174 8.36579 10.4368C9.12284 9.61331 10.1877 9.3505 11.2501 9.35372V3.36987ZM11.2501 12.1084V10.8535C10.4193 10.8492 9.83332 11.0568 9.47002 11.4521L9.46989 11.4522C9.1415 11.8093 9.12336 12.1181 9.18774 12.3637C9.2644 12.656 9.47821 12.9135 9.67039 13.038L9.67091 13.0384C10.3042 13.4497 11.2501 12.9709 11.2501 12.1084Z" fill="#1D1D1D"/>
</g>
</svg>
