<svg width="98" height="66" viewBox="0 0 98 66" fill="none" xmlns="http://www.w3.org/2000/svg">
<circle cx="32" cy="32" r="31.5" transform="matrix(-1 0 0 1 98 1)" fill="#FFFDEF" stroke="#F24D4D"/>
<path d="M14.5 65L12 65M14.5 65L17 65M14.5 65L14.5 41" stroke="#F24D4D" stroke-linecap="round" stroke-dasharray="2 2"/>
<path d="M14.5 1L17 1M14.5 1L12 1M14.5 1L14.5 23" stroke="#F24D4D" stroke-linecap="round" stroke-dasharray="2 2"/>
<path d="M4.20956 27.5156V36H2.67441V29.0039H2.62753L0.647062 30.2695V28.875L2.74472 27.5156H4.20956ZM9.28209 36.1172C7.46569 36.1172 6.17662 35.1328 6.14147 33.7031H7.67662C7.7235 34.3828 8.40319 34.8281 9.28209 34.8281C10.2196 34.8281 10.8876 34.3125 10.8876 33.5625C10.8876 32.8008 10.2313 32.25 9.12975 32.25H8.36803V31.0781H9.12975C10.0321 31.0781 10.6649 30.5742 10.6532 29.8359C10.6649 29.1211 10.1258 28.6406 9.29381 28.6406C8.49694 28.6406 7.80553 29.0859 7.78209 29.8008H6.31725C6.35241 28.3711 7.64147 27.3984 9.30553 27.3984C11.0282 27.3984 12.1415 28.4531 12.1297 29.7539C12.1415 30.7031 11.5087 31.3945 10.5829 31.582V31.6523C11.7782 31.8164 12.4579 32.5781 12.4462 33.6445C12.4579 35.0742 11.1219 36.1172 9.28209 36.1172ZM16.4992 36.1289C14.6007 36.1289 13.4523 34.7695 13.4523 32.8477C13.4523 30.9023 14.6359 29.5547 16.4992 29.5547C18.046 29.5547 19.1242 30.457 19.2296 31.8281H17.7999C17.6827 31.2188 17.2374 30.75 16.5109 30.75C15.5851 30.75 14.964 31.5352 14.964 32.8125C14.964 34.125 15.5734 34.9102 16.5109 34.9102C17.1788 34.9102 17.671 34.5234 17.7999 33.832H19.2296C19.1124 35.1797 18.0929 36.1289 16.4992 36.1289ZM20.2826 36V29.6367H21.7123V30.7148H21.7943C22.0522 29.9883 22.6967 29.5547 23.5404 29.5547C24.4076 29.5547 25.017 29.9883 25.2631 30.7148H25.3334C25.6147 30.0117 26.3178 29.5547 27.2436 29.5547C28.4037 29.5547 29.224 30.3047 29.224 31.7227V36H27.7358V31.957C27.7358 31.1602 27.2553 30.8086 26.6459 30.8086C25.9076 30.8086 25.4858 31.3125 25.4858 32.0273V36H24.0326V31.8984C24.0326 31.2422 23.5873 30.8086 22.9545 30.8086C22.31 30.8086 21.7826 31.3359 21.7826 32.1328V36H20.2826Z" fill="#F24D4D"/>
</svg>
