<svg width="133" height="112" viewBox="0 0 133 112" fill="none" xmlns="http://www.w3.org/2000/svg">
<path d="M36.5 56.5C36.5 86.8714 61.344 111.5 92 111.5C122.656 111.5 147.5 86.8714 147.5 56.5C147.5 26.1286 122.656 1.5 92 1.5C61.344 1.5 36.5 26.1286 36.5 56.5Z" fill="#FFFDEF" stroke="#F24D4D"/>
<path d="M15.5 1L18 1M15.5 1L13 1M15.5 1L15.5 47" stroke="#F24D4D" stroke-linecap="round" stroke-dasharray="2 2"/>
<path d="M15.5 111L18 111M15.5 111L13 111M15.5 111L15.5 65" stroke="#F24D4D" stroke-linecap="round" stroke-dasharray="2 2"/>
<path d="M1.0787 60V58.8984L4.0787 56.0039C4.93417 55.1484 5.37948 54.6445 5.37948 53.9297C5.37948 53.1445 4.75839 52.6406 3.92636 52.6406C3.04745 52.6406 2.48495 53.1914 2.49667 54.0469H1.04355C1.03183 52.4414 2.23886 51.3984 3.93808 51.3984C5.67245 51.3984 6.84433 52.4297 6.84433 53.8594C6.84433 54.8203 6.37558 55.5938 4.71152 57.1641L3.1998 58.6641V58.7227H6.97323V60H1.0787ZM8.23717 60V58.8984L11.2372 56.0039C12.0926 55.1484 12.538 54.6445 12.538 53.9297C12.538 53.1445 11.9169 52.6406 11.0848 52.6406C10.2059 52.6406 9.64342 53.1914 9.65514 54.0469H8.20202C8.1903 52.4414 9.39733 51.3984 11.0965 51.3984C12.8309 51.3984 14.0028 52.4297 14.0028 53.8594C14.0028 54.8203 13.534 55.5938 11.87 57.1641L10.3583 58.6641V58.7227H14.1317V60H8.23717ZM18.1847 60.1289C16.2863 60.1289 15.1378 58.7695 15.1378 56.8477C15.1378 54.9023 16.3214 53.5547 18.1847 53.5547C19.7316 53.5547 20.8097 54.457 20.9152 55.8281H19.4855C19.3683 55.2188 18.923 54.75 18.1964 54.75C17.2706 54.75 16.6495 55.5352 16.6495 56.8125C16.6495 58.125 17.2589 58.9102 18.1964 58.9102C18.8644 58.9102 19.3566 58.5234 19.4855 57.832H20.9152C20.798 59.1797 19.7785 60.1289 18.1847 60.1289ZM21.9682 60V53.6367H23.3979V54.7148H23.4799C23.7377 53.9883 24.3822 53.5547 25.226 53.5547C26.0932 53.5547 26.7025 53.9883 26.9486 54.7148H27.019C27.3002 54.0117 28.0033 53.5547 28.9291 53.5547C30.0893 53.5547 30.9096 54.3047 30.9096 55.7227V60H29.4213V55.957C29.4213 55.1602 28.9408 54.8086 28.3315 54.8086C27.5932 54.8086 27.1713 55.3125 27.1713 56.0273V60H25.7182V55.8984C25.7182 55.2422 25.2729 54.8086 24.64 54.8086C23.9955 54.8086 23.4682 55.3359 23.4682 56.1328V60H21.9682Z" fill="#F24D4D"/>
</svg>
