<svg width="115" height="83" viewBox="0 0 115 83" fill="none" xmlns="http://www.w3.org/2000/svg">
<circle cx="40.5" cy="40.5" r="40" transform="matrix(-1 0 0 1 115 1)" fill="#FFFDEF" stroke="#F24D4D"/>
<path d="M4.2037 35.5156V44H2.66855V37.0039H2.62167L0.641203 38.2695V36.875L2.73886 35.5156H4.2037ZM9.36998 44.1172C7.71764 44.1055 6.05358 43.1211 6.0653 39.9922C6.0653 37.0859 7.38952 35.3984 9.46373 35.3984C11.1044 35.3984 12.2294 36.4297 12.4169 37.8008H10.9051C10.7528 37.1562 10.2372 36.7227 9.46373 36.7227C8.23327 36.7227 7.54186 37.8125 7.54186 39.5938H7.62389C8.05748 38.8672 8.8778 38.4336 9.80358 38.4336C11.327 38.4336 12.4989 39.582 12.4989 41.1875C12.4989 42.875 11.245 44.1289 9.36998 44.1172ZM9.36998 42.8867C10.3192 42.8867 11.0223 42.1484 11.0223 41.2227C11.0223 40.3203 10.3309 39.5938 9.39342 39.5938C8.4442 39.5938 7.71764 40.3438 7.70592 41.2344C7.71764 42.125 8.40905 42.8867 9.36998 42.8867ZM16.505 44.1289C14.6066 44.1289 13.4581 42.7695 13.4581 40.8477C13.4581 38.9023 14.6417 37.5547 16.505 37.5547C18.0519 37.5547 19.13 38.457 19.2355 39.8281H17.8058C17.6886 39.2188 17.2433 38.75 16.5167 38.75C15.591 38.75 14.9699 39.5352 14.9699 40.8125C14.9699 42.125 15.5792 42.9102 16.5167 42.9102C17.1847 42.9102 17.6769 42.5234 17.8058 41.832H19.2355C19.1183 43.1797 18.0988 44.1289 16.505 44.1289ZM20.2885 44V37.6367H21.7182V38.7148H21.8002C22.058 37.9883 22.7025 37.5547 23.5463 37.5547C24.4135 37.5547 25.0229 37.9883 25.269 38.7148H25.3393C25.6205 38.0117 26.3236 37.5547 27.2494 37.5547C28.4096 37.5547 29.2299 38.3047 29.2299 39.7227V44H27.7416V39.957C27.7416 39.1602 27.2611 38.8086 26.6518 38.8086C25.9135 38.8086 25.4916 39.3125 25.4916 40.0273V44H24.0385V39.8984C24.0385 39.2422 23.5932 38.8086 22.9604 38.8086C22.3158 38.8086 21.7885 39.3359 21.7885 40.1328V44H20.2885Z" fill="#F24D4D"/>
<path d="M14.5 1L17 1M14.5 1L12 1M14.5 1L14.5 31" stroke="#F24D4D" stroke-linecap="round" stroke-dasharray="2 2"/>
<path d="M14.5 82L17 82M14.5 82L12 82M14.5 82L14.5 49" stroke="#F24D4D" stroke-linecap="round" stroke-dasharray="2 2"/>
</svg>
