<svg width="131" height="131" viewBox="0 0 131 131" fill="none" xmlns="http://www.w3.org/2000/svg">
<rect width="131" height="131" rx="65.5" fill="#FFFCE0"/>
<path d="M80.2931 45.0734H75.2782L78.8365 48.8592L77.0053 50.8074L73.4471 47.0216V52.3793H70.846V47.0216L67.2878 50.8074L65.4566 48.8592L69.0149 45.0734H64V42.306H69.0149L65.4566 38.5201L67.2878 36.5719L70.846 40.3577V35H73.4471V40.3577L77.0053 36.5719L78.8365 38.5201L75.2782 42.306H80.2931V45.0734Z" fill="#F24D4D"/>
<path d="M81.9798 98.9248C80.4177 98.9248 78.8763 98.4497 77.5285 97.5134C76.2636 96.6321 75.2752 95.3103 74.6047 93.5822C72.5657 88.3429 73.2364 79.272 76.6026 70.8107C77.356 68.9105 78.2131 67.1136 79.1669 65.4337C78.1301 62.5008 76.9067 59.3682 75.4759 55.9809L81.8488 53.3165C82.6298 55.1754 83.3556 56.9586 84.026 58.6866C85.3117 57.2959 86.6803 56.0567 88.1318 54.9826C88.4152 54.7761 88.6916 54.5764 88.9819 54.3837C93.7789 51.196 101.092 49.2339 107.237 53.2683C111.384 55.9878 113.423 60.5662 112.559 65.2134C111.978 68.3322 109.034 75.9329 94.242 79.1757L92.7559 72.4493C100.214 70.8107 105.073 67.6368 105.757 63.9535C106.103 62.0808 105.211 60.1806 103.428 59.0102C100.601 57.1582 96.6335 57.5644 92.8112 60.1049C92.6177 60.2357 92.4241 60.3665 92.2375 60.5042C90.2192 61.9982 88.3737 63.9466 86.7563 66.2874C88.353 71.1962 89.4589 75.6438 90.1777 79.9743L90.1915 80.0569C90.6961 83.1 91.2626 88.6802 90.3779 92.1502C89.6591 94.9591 87.4403 97.417 84.717 98.4291C83.8184 98.7595 82.8922 98.9248 81.9798 98.9248ZM82.222 75.5336C80.2452 81.2273 79.8371 87.9711 81.0536 91.0968C81.2955 91.7233 81.4822 91.8679 81.4891 91.8679C81.7794 92.0675 81.9937 92.0951 82.3116 91.978C82.9199 91.7509 83.5212 91.083 83.6802 90.4496C84.2124 88.3773 83.7841 83.6714 83.3763 81.186L83.3625 81.1034C83.0584 79.2858 82.6851 77.4407 82.222 75.5336Z" fill="#F24D4D"/>
<path d="M56.5724 86.8098C56.2806 86.8098 55.9815 86.8098 55.6825 86.7884C52.3079 86.6245 49.1754 85.3343 46.5554 83.1604C46.2422 83.36 45.9218 83.5596 45.6014 83.7449C39.4004 87.38 33.0357 87.6936 27.6819 84.6287C26.2936 83.8375 25.0405 82.804 23.937 81.5567C19.9074 76.995 19.046 70.459 21.6232 64.0726C22.9261 60.8438 25.005 58.2849 27.0197 55.8045C29.4119 52.8608 31.4836 50.3091 31.9108 47.1516C32.0318 46.2606 31.7399 45.1202 31.2416 44.5571C31.0209 44.3005 30.8785 44.3005 30.7646 44.3005C29.3692 44.3005 27.9026 45.8686 26.3932 48.9406L20 45.8044C21.0466 43.6733 24.2218 37.1942 30.7361 37.1729H30.7646C33.0072 37.1729 35.0789 38.128 36.5954 39.86C38.4606 41.9911 39.3648 45.1487 38.959 48.1138C38.2613 53.2528 35.2213 56.9948 32.5373 60.3021C30.7788 62.4689 29.12 64.5074 28.2158 66.7455C27.4754 68.5844 26.0942 73.2459 29.2624 76.8453C29.8462 77.5011 30.494 78.0428 31.1988 78.449C35.1074 80.6871 39.2295 79.226 41.9919 77.608H42.0061C41.2942 76.3107 40.689 74.9066 40.1978 73.4027C40.148 73.2459 40.0981 73.0891 40.0554 72.9394C38.5959 67.9857 38.1332 60.2023 41.6074 54.5999C44.0352 50.694 48.677 48.9121 53.1623 50.1808C57.6475 51.4424 60.5664 55.2628 60.602 59.9172C60.6448 66.0897 57.2915 73.1532 52.1655 78.5061C53.2477 79.1689 54.5221 79.618 56.01 79.6893C58.5872 79.8176 60.5024 79.1119 62.0259 77.4797C66.5895 72.5687 66.3047 60.8366 65.8063 56.7311L72.8759 55.8615C72.8973 56.0397 73.417 60.352 73.061 65.6193C72.5627 73.0819 70.6048 78.7056 67.2516 82.3194C64.5035 85.2773 60.8227 86.824 56.5582 86.824L56.5724 86.8098ZM50.2789 56.8879C49.3391 56.8879 48.3353 57.2728 47.6661 58.342C45.5872 61.6991 45.8079 67.2087 46.8972 70.908C46.9256 71.0078 46.9541 71.1004 46.9826 71.1931C47.1107 71.5923 47.3243 72.1767 47.6233 72.861C51.1261 68.9123 53.5253 63.9229 53.4969 59.9457C53.4826 57.8715 51.9163 57.2087 51.2471 57.0233C50.9481 56.9378 50.6135 56.8879 50.2789 56.8879Z" fill="#F24D4D"/>
</svg>
