<svg width="94" height="26" viewBox="0 0 94 26" fill="none" xmlns="http://www.w3.org/2000/svg">
<g clip-path="url(#clip0_1437_18747)">
<path d="M46.6745 6.7208H44.6719L46.089 8.12691L45.3565 8.85379L43.9394 7.44769V9.44066H42.9036V7.44769L41.4865 8.85379L40.7539 8.12691L42.171 6.7208H40.1685V5.69303H42.171L40.7539 4.28692L41.4865 3.566L42.9036 4.9721V2.97913H43.9394V4.9721L45.3565 3.566L46.089 4.28692L44.6719 5.69303H46.6745V6.7208Z" fill="#F24D4D"/>
<path d="M39 3.95801V23.5384H36.0551V15.2138H27.9332V23.5384H25V3.95801H27.9332V12.2874H36.0551V3.95801H39Z" fill="#F24D4D"/>
<path d="M42 10.8112H45L45 23.5384H42L42 10.8112Z" fill="#F24D4D"/>
<path d="M17.1281 23.5325C17.0074 23.5325 16.8837 23.5325 16.76 23.5237C15.3641 23.4558 14.0683 22.9216 12.9846 22.0214C12.855 22.1041 12.7225 22.1867 12.59 22.2634C10.0249 23.7687 7.39217 23.8985 5.17758 22.6294C4.60332 22.3018 4.08501 21.8739 3.62855 21.3574C1.96172 19.4685 1.60538 16.762 2.67144 14.1176C3.21037 12.7806 4.07029 11.721 4.9037 10.694C5.8932 9.47503 6.75018 8.41843 6.92687 7.11096C6.97694 6.74204 6.8562 6.26981 6.65005 6.03665C6.55876 5.9304 6.49986 5.9304 6.45274 5.9304C5.87553 5.9304 5.26888 6.57971 4.64455 7.85176L2 6.55315C2.43291 5.67068 3.74635 2.98786 6.44096 2.979H6.45274C7.38039 2.979 8.23737 3.37449 8.86464 4.09168C9.63621 4.97415 10.0102 6.28162 9.84236 7.5094C9.55376 9.63736 8.29627 11.1868 7.18603 12.5563C6.45863 13.4535 5.77246 14.2976 5.39845 15.2244C5.09218 15.9858 4.52086 17.916 5.83136 19.4065C6.07284 19.678 6.34083 19.9023 6.63238 20.0706C8.24915 20.9973 9.95427 20.3923 11.0969 19.7223H11.1028C10.8083 19.1851 10.558 18.6037 10.3548 17.981C10.3342 17.916 10.3135 17.8511 10.2959 17.7891C9.69217 15.7379 9.50075 12.515 10.9379 10.1952C11.9421 8.57781 13.8622 7.83996 15.7175 8.36531C17.5728 8.8877 18.7802 10.4697 18.795 12.3969C18.8126 14.9528 17.4256 17.8777 15.3052 20.0942C15.7528 20.3686 16.28 20.5546 16.8955 20.5841C17.9615 20.6372 18.7537 20.345 19.3839 19.6692C21.2716 17.6356 21.1539 12.7776 20.9477 11.0776L23.872 10.7176C23.8809 10.7914 24.0958 12.577 23.9486 14.758C23.7424 17.8481 22.9326 20.1768 21.5455 21.6732C20.4088 22.898 18.8863 23.5384 17.1222 23.5384L17.1281 23.5325ZM14.5248 11.1426C14.1361 11.1426 13.7208 11.3019 13.444 11.7447C12.5841 13.1348 12.6754 15.4162 13.126 16.948C13.1377 16.9893 13.1495 17.0277 13.1613 17.066C13.2143 17.2313 13.3027 17.4733 13.4263 17.7567C14.8753 16.1216 15.8677 14.0556 15.8559 12.4087C15.85 11.5499 15.2021 11.2754 14.9253 11.1986C14.8016 11.1632 14.6632 11.1426 14.5248 11.1426Z" fill="#F24D4D"/>
<path d="M70.255 23.5386C66.817 23.5386 63.8376 21.9284 62.4857 19.7379C60.5974 16.6815 62.165 13.6768 64.2662 11.8874C64.3441 11.8205 64.4251 11.7537 64.503 11.6869C64.479 11.6504 64.455 11.617 64.4311 11.5805C63.6607 10.4503 63.373 9.20168 63.6038 7.96516C63.8496 6.64662 64.6798 5.44656 65.9417 4.58374C68.2707 2.99784 71.2981 2.5482 73.8459 3.41102L72.8957 6.29116C71.2351 5.72911 69.1639 6.04811 67.6143 7.10234C67.0208 7.50641 66.6431 8.01074 66.5472 8.52418C66.4693 8.94951 66.5832 9.39308 66.8919 9.84576C66.9249 9.89437 66.9608 9.94602 66.9968 9.99463C67.8451 9.54195 68.7083 9.1956 69.5836 8.96471C73.1834 8.00466 74.5712 9.48422 75.0808 10.4503C75.6323 11.4985 75.5813 12.8353 74.9519 13.8622C73.666 15.9585 70.9084 16.0223 68.7473 15.1534C67.989 14.8495 67.2576 14.4181 66.5802 13.8865C66.4513 13.9898 66.3224 14.0961 66.1935 14.2055C65.1205 15.1199 64.0474 16.5418 65.0245 18.1186C66.6072 20.6797 70.9174 21.0139 73.7949 19.7105C75.3745 18.9966 76.2947 17.8755 76.3037 17.8634L78.6387 19.7683C78.5038 19.9414 77.2479 21.4757 75.0178 22.4843C73.4082 23.2135 71.7866 23.5325 70.255 23.5325V23.5386ZM69.5086 12.1821C69.6225 12.2368 69.7394 12.2884 69.8533 12.337C70.8245 12.7289 72.0834 12.7927 72.4071 12.2671C72.482 12.1456 72.482 11.9724 72.4371 11.8874C72.3352 11.6929 71.6188 11.5714 70.3479 11.9117C70.0691 11.9846 69.7904 12.0757 69.5086 12.1851V12.1821Z" fill="#F24D4D"/>
<path d="M83.2537 23.5386C79.8156 23.5386 76.8361 21.9284 75.4842 19.7379C73.5958 16.6815 75.1665 13.6768 77.2647 11.8874C77.3426 11.8205 77.4236 11.7537 77.5015 11.6869C77.4775 11.6504 77.4535 11.617 77.4296 11.5805C76.6592 10.4503 76.3714 9.20168 76.6023 7.96516C76.8481 6.64662 77.6784 5.44656 78.9403 4.58374C81.2664 2.99784 84.2968 2.5482 86.8447 3.41102L85.8945 6.29116C84.2339 5.72911 82.1626 6.04811 80.6129 7.10234C80.0194 7.50641 79.6417 8.01074 79.5458 8.52418C79.4679 8.94951 79.5818 9.39308 79.8905 9.84576C79.9235 9.89437 79.9594 9.94602 79.9954 9.99463C80.8437 9.54195 81.707 9.1956 82.5823 8.96471C86.1822 8.00466 87.5701 9.48422 88.0797 10.4503C88.6312 11.4985 88.5802 12.8353 87.9508 13.8622C86.6648 15.9585 83.9072 16.0223 81.746 15.1534C80.9876 14.8495 80.2562 14.4181 79.5788 13.8865C79.4499 13.9898 79.321 14.0961 79.1921 14.2055C78.119 15.1199 77.0459 16.5418 78.0231 18.1186C79.6057 20.6797 83.9161 21.0109 86.7937 19.7105C88.3734 18.9966 89.2937 17.8755 89.3026 17.8634L91.6377 19.7683C91.5028 19.9414 90.2498 21.4757 88.0167 22.4843C86.4071 23.2135 84.7854 23.5325 83.2537 23.5325V23.5386ZM82.5073 12.1821C82.6212 12.2368 82.7381 12.2884 82.852 12.337C83.8262 12.7289 85.0822 12.7927 85.4059 12.2671C85.4808 12.1456 85.4808 11.9724 85.4359 11.8874C85.334 11.6929 84.6176 11.5714 83.3466 11.9117C83.0679 11.9846 82.7891 12.0757 82.5073 12.1851V12.1821Z" fill="#F24D4D"/>
<path d="M49.9868 23.5384C49.3403 23.5384 48.7024 23.3356 48.1446 22.9359C47.6211 22.5596 47.212 21.9952 46.9346 21.2574C46.0907 19.0205 46.3683 15.1477 47.7614 11.5351C48.0732 10.7238 48.4279 9.95661 48.8227 9.23939C48.3936 7.98718 47.8873 6.64973 47.2951 5.20352L49.9326 4.06595C50.2558 4.8596 50.5562 5.62092 50.8337 6.35872C51.3657 5.76495 51.9321 5.23585 52.5328 4.7773C52.6501 4.68911 52.7645 4.60387 52.8847 4.52156C54.8699 3.1606 57.8964 2.32285 60.4395 4.04537C62.1558 5.20646 62.9997 7.16119 62.6421 9.14532C62.4018 10.4769 61.1832 13.7221 55.0616 15.1065L54.4466 12.2347C57.5331 11.5351 59.5441 10.18 59.8273 8.6074C59.9704 7.80787 59.6013 6.99658 58.8633 6.49688C57.6933 5.70616 56.0514 5.87959 54.4694 6.96425C54.3894 7.0201 54.3093 7.07595 54.232 7.13474C53.3967 7.7726 52.633 8.60447 51.9636 9.60388C52.6244 11.6997 53.0821 13.5986 53.3796 15.4475L53.3853 15.4828C53.5941 16.782 53.8286 19.1645 53.4624 20.646C53.1649 21.8453 52.2467 22.8947 51.1196 23.3268C50.7477 23.4679 50.3644 23.5384 49.9868 23.5384ZM50.087 13.5516C49.2689 15.9825 49.1 18.8618 49.6035 20.1963C49.7036 20.4638 49.7809 20.5255 49.7837 20.5255C49.9039 20.6107 49.9925 20.6225 50.1241 20.5725C50.3759 20.4755 50.6247 20.1904 50.6905 19.92C50.9108 19.0352 50.7335 17.026 50.5648 15.9649L50.559 15.9296C50.4332 15.1536 50.2787 14.3658 50.087 13.5516Z" fill="#F24D4D"/>
</g>
<defs>
<clipPath id="clip0_1437_18747">
<rect width="90" height="22" fill="white" transform="translate(2 2)"/>
</clipPath>
</defs>
</svg>
