<svg width="77" height="48" viewBox="0 0 77 48" fill="none" xmlns="http://www.w3.org/2000/svg">
<circle cx="22.5" cy="22.5" r="22" transform="matrix(-1 0 0 1 77 2)" fill="#FFFDEF" stroke="#F24D4D"/>
<path d="M12.5 47L10 47M12.5 47L15 47M12.5 47L12.5 33" stroke="#F24D4D" stroke-linecap="round" stroke-dasharray="2 2"/>
<path d="M12.5 1L15 1M12.5 1L10 1M12.5 1L12.5 15" stroke="#F24D4D" stroke-linecap="round" stroke-dasharray="2 2"/>
<path d="M4.24667 19.5156V28H2.71152V21.0039H2.66464L0.684172 22.2695V20.875L2.78183 19.5156H4.24667ZM9.68248 19.5156V28H8.14733V21.0039H8.10045L6.11998 22.2695V20.875L8.21764 19.5156H9.68248ZM14.462 28.1289C12.5636 28.1289 11.4152 26.7695 11.4152 24.8477C11.4152 22.9023 12.5988 21.5547 14.462 21.5547C16.0089 21.5547 17.087 22.457 17.1925 23.8281H15.7628C15.6456 23.2188 15.2003 22.75 14.4738 22.75C13.548 22.75 12.9269 23.5352 12.9269 24.8125C12.9269 26.125 13.5363 26.9102 14.4738 26.9102C15.1417 26.9102 15.6339 26.5234 15.7628 25.832H17.1925C17.0753 27.1797 16.0558 28.1289 14.462 28.1289ZM18.2455 28V21.6367H19.6752V22.7148H19.7572C20.015 21.9883 20.6596 21.5547 21.5033 21.5547C22.3705 21.5547 22.9799 21.9883 23.226 22.7148H23.2963C23.5775 22.0117 24.2807 21.5547 25.2065 21.5547C26.3666 21.5547 27.1869 22.3047 27.1869 23.7227V28H25.6986V23.957C25.6986 23.1602 25.2182 22.8086 24.6088 22.8086C23.8705 22.8086 23.4486 23.3125 23.4486 24.0273V28H21.9955V23.8984C21.9955 23.2422 21.5502 22.8086 20.9174 22.8086C20.2729 22.8086 19.7455 23.3359 19.7455 24.1328V28H18.2455Z" fill="#F24D4D"/>
</svg>
