<svg width="131" height="100" viewBox="0 0 131 100" fill="none" xmlns="http://www.w3.org/2000/svg">
<circle cx="49" cy="49" r="48.5" transform="matrix(-1 0 0 1 131 1)" fill="#FFFDEF" stroke="#F24D4D"/>
<path d="M15 99L11 99M15 99L19 99M15 99L15 57" stroke="#F24D4D" stroke-width="1.03716" stroke-linecap="round" stroke-dasharray="2 2"/>
<path d="M15 1L19 1M15 1L11 1M15 1L15 39" stroke="#F24D4D" stroke-width="1.03716" stroke-linecap="round" stroke-dasharray="2 2"/>
<path d="M4.2037 43.5156V52H2.66855V45.0039H2.62167L0.641203 46.2695V44.875L2.73886 43.5156H4.2037ZM9.20592 43.3984C10.8641 43.4102 12.5165 44.4004 12.5223 47.5C12.5223 50.4238 11.1981 52.1172 9.11217 52.1172C7.47741 52.1172 6.34655 51.0977 6.15905 49.6914H7.67077C7.82311 50.3652 8.34459 50.793 9.11217 50.793C10.3426 50.793 11.034 49.709 11.0458 47.8867H10.952C10.5243 48.625 9.70397 49.0645 8.77233 49.0586C7.25475 49.0645 6.08287 47.9102 6.07702 46.3047C6.07702 44.6465 7.32506 43.3867 9.20592 43.3984ZM7.5653 46.2695C7.5653 47.1836 8.24498 47.8984 9.1942 47.8984C10.1376 47.8984 10.8641 47.1367 10.8583 46.2578C10.8583 45.3965 10.1669 44.6348 9.21764 44.6289C8.26256 44.6348 7.55358 45.3613 7.5653 46.2695ZM16.505 52.1289C14.6066 52.1289 13.4581 50.7695 13.4581 48.8477C13.4581 46.8965 14.6417 45.5547 16.505 45.5547C18.046 45.5547 19.13 46.457 19.2355 47.8281H17.8058C17.6886 47.2188 17.2433 46.7559 16.5167 46.75C15.591 46.7559 14.9699 47.5293 14.9699 48.8125C14.9699 50.125 15.5792 50.9043 16.5167 50.9102C17.1788 50.9043 17.671 50.5176 17.8058 49.832H19.2355C19.1242 51.1738 18.1046 52.1289 16.505 52.1289ZM20.2885 52V45.6367H21.7182V46.7148H21.8002C22.0639 45.9883 22.7025 45.5547 23.5463 45.5547C24.4076 45.5547 25.0287 45.9941 25.269 46.7148H25.3393C25.6147 46.0117 26.3236 45.5547 27.2494 45.5547C28.4154 45.5547 29.2358 46.3047 29.2299 47.7227V52H27.7416V47.957C27.7416 47.166 27.2611 46.8086 26.6518 46.8086C25.9193 46.8086 25.4916 47.3066 25.4916 48.0273V52H24.0385V47.8984C24.0326 47.2363 23.599 46.8086 22.9604 46.8086C22.3158 46.8086 21.7885 47.3418 21.7885 48.1328V52H20.2885Z" fill="#F24D4D"/>
</svg>
