<svg width="90" height="22" viewBox="0 0 90 22" fill="none" xmlns="http://www.w3.org/2000/svg">
<g clip-path="url(#clip0_1505_5369)">
<path d="M44.6747 4.72068H42.6721L44.0892 6.12679L43.3567 6.85367L41.9396 5.44756V7.44054H40.9038V5.44756L39.4867 6.85367L38.7541 6.12679L40.1712 4.72068H38.1687V3.69291H40.1712L38.7541 2.2868L39.4867 1.56587L40.9038 2.97198V0.979004H41.9396V2.97198L43.3567 1.56587L44.0892 2.2868L42.6721 3.69291H44.6747V4.72068Z" fill="black"/>
<path d="M37 1.95801V21.5384H34.0551V13.2138H25.9332V21.5384H23V1.95801H25.9332V10.2874H34.0551V1.95801H37Z" fill="black"/>
<path d="M40 8.81104H43L43 21.5383H40L40 8.81104Z" fill="black"/>
<path d="M15.1281 21.5325C15.0074 21.5325 14.8837 21.5325 14.76 21.5237C13.3641 21.4558 12.0683 20.9216 10.9846 20.0214C10.855 20.1041 10.7225 20.1867 10.59 20.2634C8.02495 21.7687 5.39217 21.8985 3.17758 20.6294C2.60332 20.3018 2.08501 19.8739 1.62855 19.3574C-0.038284 17.4685 -0.394621 14.762 0.671445 12.1176C1.21037 10.7806 2.07029 9.72105 2.9037 8.69396C3.8932 7.47503 4.75018 6.41843 4.92687 5.11096C4.97694 4.74204 4.8562 4.26981 4.65005 4.03665C4.55876 3.9304 4.49986 3.9304 4.45274 3.9304C3.87553 3.9304 3.26888 4.57971 2.64455 5.85176L0 4.55315C0.432905 3.67068 1.74635 0.987858 4.44096 0.979004H4.45274C5.38039 0.979004 6.23737 1.37449 6.86464 2.09168C7.63621 2.97415 8.01022 4.28162 7.84236 5.5094C7.55376 7.63736 6.29627 9.18684 5.18603 10.5563C4.45863 11.4535 3.77246 12.2976 3.39845 13.2244C3.09218 13.9858 2.52086 15.916 3.83136 17.4065C4.07284 17.678 4.34083 17.9023 4.63238 18.0706C6.24915 18.9973 7.95427 18.3923 9.0969 17.7223H9.10279C8.8083 17.1851 8.55798 16.6037 8.35478 15.981C8.33416 15.916 8.31355 15.8511 8.29588 15.7891C7.69217 13.7379 7.50075 10.515 8.93787 8.19517C9.9421 6.57781 11.8622 5.83996 13.7175 6.36531C15.5728 6.8877 16.7802 8.46965 16.795 10.3969C16.8126 12.9528 15.4256 15.8777 13.3052 18.0942C13.7528 18.3686 14.28 18.5546 14.8955 18.5841C15.9615 18.6372 16.7537 18.345 17.3839 17.6692C19.2716 15.6356 19.1539 10.7776 18.9477 9.07764L21.872 8.71757C21.8809 8.79136 22.0958 10.577 21.9486 12.758C21.7424 15.8481 20.9326 18.1768 19.5455 19.6732C18.4088 20.898 16.8863 21.5384 15.1222 21.5384L15.1281 21.5325ZM12.5248 9.14257C12.1361 9.14257 11.7208 9.30195 11.444 9.74466C10.5841 11.1348 10.6754 13.4162 11.126 14.948C11.1377 14.9893 11.1495 15.0277 11.1613 15.066C11.2143 15.2313 11.3027 15.4733 11.4263 15.7567C12.8753 14.1216 13.8677 12.0556 13.8559 10.4087C13.85 9.54987 13.2021 9.27538 12.9253 9.19865C12.8016 9.16323 12.6632 9.14257 12.5248 9.14257Z" fill="black"/>
<path d="M68.2549 21.5384C64.8169 21.5384 61.8374 19.9282 60.4856 17.7378C58.5973 14.6814 60.1649 11.6767 62.2661 9.88725C62.344 9.82042 62.4249 9.75358 62.5029 9.68674C62.4789 9.65028 62.4549 9.61686 62.4309 9.5804C61.6606 8.45022 61.3729 7.20156 61.6037 5.96504C61.8494 4.6465 62.6797 3.44644 63.9416 2.58361C66.2706 0.997716 69.2979 0.548074 71.8457 1.4109L70.8956 4.29104C69.235 3.72899 67.1638 4.04799 65.6142 5.10222C65.0207 5.50629 64.643 6.01061 64.5471 6.52406C64.4692 6.94939 64.5831 7.39296 64.8918 7.84564C64.9248 7.89425 64.9607 7.9459 64.9967 7.99451C65.845 7.54183 66.7082 7.19548 67.5834 6.96458C71.1833 6.00454 72.5711 7.4841 73.0807 8.45022C73.6322 9.49838 73.5812 10.8351 72.9518 11.862C71.6659 13.9583 68.9083 14.0221 66.7472 13.1532C65.9888 12.8494 65.2575 12.418 64.5801 11.8863C64.4512 11.9896 64.3223 12.096 64.1934 12.2053C63.1203 13.1198 62.0473 14.5417 63.0244 16.1184C64.607 18.6796 68.9173 19.0138 71.7948 17.7104C73.3744 16.9965 74.2946 15.8754 74.3036 15.8632L76.6385 17.7681C76.5037 17.9413 75.2478 19.4756 73.0177 20.4842C71.4081 21.2134 69.7865 21.5324 68.2549 21.5324V21.5384ZM67.5085 10.182C67.6224 10.2366 67.7393 10.2883 67.8532 10.3369C68.8244 10.7288 70.0833 10.7926 70.407 10.267C70.4819 10.1455 70.4819 9.97232 70.437 9.88725C70.335 9.69281 69.6187 9.57129 68.3478 9.91156C68.069 9.98447 67.7903 10.0756 67.5085 10.185V10.182Z" fill="black"/>
<path d="M81.2539 21.5384C77.8158 21.5384 74.8363 19.9282 73.4844 17.7378C71.596 14.6814 73.1667 11.6767 75.2649 9.88725C75.3428 9.82042 75.4238 9.75358 75.5017 9.68674C75.4777 9.65028 75.4537 9.61686 75.4298 9.5804C74.6594 8.45022 74.3716 7.20156 74.6025 5.96504C74.8482 4.6465 75.6786 3.44644 76.9405 2.58361C79.2666 0.997716 82.297 0.548074 84.8449 1.4109L83.8947 4.29104C82.2341 3.72899 80.1628 4.04799 78.6131 5.10222C78.0196 5.50629 77.6419 6.01061 77.546 6.52406C77.4681 6.94939 77.582 7.39296 77.8907 7.84564C77.9237 7.89425 77.9596 7.9459 77.9956 7.99451C78.8439 7.54183 79.7072 7.19548 80.5825 6.96458C84.1824 6.00454 85.5703 7.4841 86.0799 8.45022C86.6314 9.49838 86.5804 10.8351 85.951 11.862C84.665 13.9583 81.9074 14.0221 79.7462 13.1532C78.9878 12.8494 78.2564 12.418 77.579 11.8863C77.4501 11.9896 77.3212 12.096 77.1923 12.2053C76.1192 13.1198 75.0461 14.5417 76.0233 16.1184C77.6059 18.6796 81.9163 19.0107 84.7939 17.7104C86.3736 16.9965 87.2938 15.8754 87.3028 15.8632L89.6379 17.7681C89.503 17.9413 88.25 19.4756 86.0169 20.4842C84.4073 21.2134 82.7856 21.5324 81.2539 21.5324V21.5384ZM80.5075 10.182C80.6214 10.2366 80.7383 10.2883 80.8522 10.3369C81.8264 10.7288 83.0824 10.7926 83.4061 10.267C83.481 10.1455 83.481 9.97232 83.4361 9.88725C83.3342 9.69281 82.6178 9.57129 81.3468 9.91156C81.0681 9.98447 80.7893 10.0756 80.5075 10.185V10.182Z" fill="black"/>
<path d="M47.9866 21.5387C47.3401 21.5387 46.7022 21.3359 46.1444 20.9361C45.6209 20.5598 45.2119 19.9955 44.9344 19.2577C44.0905 17.0207 44.3681 13.1479 45.7612 9.53535C46.073 8.72406 46.4277 7.95686 46.8225 7.23963C46.3934 5.98742 45.8871 4.64997 45.2949 3.20376L47.9324 2.06619C48.2556 2.85984 48.556 3.62116 48.8335 4.35897C49.3655 3.7652 49.9319 3.2361 50.5327 2.77754C50.6499 2.68936 50.7644 2.60411 50.8845 2.52181C52.8698 1.16084 55.8962 0.323096 58.4393 2.04562C60.1557 3.2067 60.9995 5.16144 60.642 7.14557C60.4017 8.47714 59.1831 11.7223 53.0614 13.1068L52.4464 10.2349C55.5329 9.53535 57.5439 8.18026 57.8271 6.60765C57.9702 5.80812 57.6012 4.99683 56.8631 4.49712C55.6931 3.70641 54.0512 3.87984 52.4693 4.96449C52.3892 5.02034 52.3091 5.07619 52.2318 5.13498C51.3965 5.77284 50.6328 6.60471 49.9634 7.60412C50.6242 9.69995 51.0819 11.5988 51.3794 13.4478L51.3851 13.483C51.5939 14.7823 51.8284 17.1648 51.4622 18.6463C51.1647 19.8456 50.2465 20.8949 49.1194 21.327C48.7475 21.4681 48.3642 21.5387 47.9866 21.5387ZM48.0869 11.5518C47.2687 13.9827 47.0998 16.862 47.6033 18.1965C47.7034 18.464 47.7807 18.5257 47.7835 18.5257C47.9037 18.611 47.9924 18.6227 48.1239 18.5728C48.3757 18.4758 48.6245 18.1906 48.6903 17.9202C48.9106 17.0354 48.7333 15.0262 48.5646 13.9651L48.5589 13.9298C48.433 13.1538 48.2785 12.366 48.0869 11.5518Z" fill="black"/>
</g>
<defs>
<clipPath id="clip0_1505_5369">
<rect width="90" height="22" fill="white"/>
</clipPath>
</defs>
</svg>
