<svg width="128" height="128" viewBox="0 0 128 128" fill="none" xmlns="http://www.w3.org/2000/svg">
<rect width="128" height="128" fill="#FFF7BE"/>
<path d="M78.4544 44.0414H73.5544L77.0312 47.7405L75.2419 49.6441L71.7652 45.945V51.18H69.2237V45.945L65.7469 49.6441L63.9577 47.7405L67.4344 44.0414H62.5344V41.3374H67.4344L63.9577 37.6383L65.7469 35.7346L69.2237 39.4337V34.1987H71.7652V39.4337L75.2419 35.7346L77.0312 37.6383L73.5544 41.3374H78.4544V44.0414Z" fill="#F24D4D"/>
<path d="M80.1024 96.6598C78.5761 96.6598 77.07 96.1956 75.753 95.2807C74.5171 94.4196 73.5513 93.128 72.8962 91.4395C70.9039 86.3202 71.5592 77.4571 74.8483 69.1895C75.5845 67.3328 76.4219 65.5771 77.3539 63.9357C76.3409 61.0699 75.1455 58.0091 73.7474 54.6994L79.9744 52.096C80.7375 53.9123 81.4467 55.6546 82.1018 57.3431C83.358 55.9843 84.6952 54.7734 86.1135 53.724C86.3904 53.5221 86.6605 53.3271 86.9442 53.1387C91.6313 50.0241 98.7767 48.1068 104.781 52.0489C108.833 54.7061 110.825 59.1796 109.981 63.7204C109.414 66.7678 106.537 74.1945 92.0838 77.3629L90.6317 70.7906C97.919 69.1895 102.667 66.0883 103.335 62.4893C103.673 60.6596 102.802 58.8029 101.059 57.6593C98.2972 55.8497 94.4205 56.2466 90.6857 58.7289C90.4966 58.8567 90.3075 58.9845 90.1252 59.1191C88.1531 60.5788 86.3499 62.4826 84.7695 64.7698C86.3296 69.5662 87.4102 73.9119 88.1126 78.1433L88.1261 78.224C88.6191 81.1974 89.1727 86.6499 88.3082 90.0403C87.6058 92.785 85.4379 95.1865 82.7769 96.1754C81.8989 96.4983 80.9939 96.6598 80.1024 96.6598ZM80.3391 73.8043C78.4075 79.3676 78.0088 85.957 79.1974 89.0111C79.4338 89.6232 79.6162 89.7645 79.6229 89.7645C79.9066 89.9596 80.1159 89.9865 80.4266 89.8721C81.0209 89.6501 81.6085 88.9976 81.7638 88.3787C82.2839 86.3539 81.8654 81.7557 81.4669 79.3272L81.4534 79.2465C81.1563 77.4706 80.7916 75.6677 80.3391 73.8043Z" fill="#F24D4D"/>
<path d="M55.2771 84.8225C54.9919 84.8225 54.6998 84.8225 54.4076 84.8016C51.1103 84.6414 48.0495 83.3808 45.4895 81.2567C45.1834 81.4517 44.8704 81.6467 44.5574 81.8278C38.4984 85.3796 32.2794 85.686 27.0482 82.6913C25.6917 81.9183 24.4674 80.9085 23.3891 79.6897C19.4518 75.2325 18.6101 68.8461 21.1283 62.606C22.4013 59.4511 24.4326 56.9509 26.4012 54.5272C28.7386 51.6509 30.7629 49.1577 31.1803 46.0724C31.2985 45.2019 31.0133 44.0876 30.5264 43.5374C30.3107 43.2867 30.1716 43.2867 30.0603 43.2867C28.6968 43.2867 27.2638 44.8189 25.7891 47.8205L19.5422 44.7562C20.5648 42.6738 23.6674 36.3432 30.0325 36.3223H30.0603C32.2515 36.3223 34.2758 37.2555 35.7575 38.9479C37.5801 41.0302 38.4636 44.1154 38.0671 47.0126C37.3853 52.034 34.415 55.6903 31.7924 58.9218C30.0742 61.039 28.4534 63.0308 27.5699 65.2176C26.8464 67.0144 25.4969 71.5692 28.5925 75.0862C29.1629 75.7269 29.7959 76.2562 30.4846 76.6532C34.3037 78.84 38.3314 77.4123 41.0305 75.8314H41.0444C40.3488 74.5639 39.7575 73.1919 39.2775 71.7224C39.2288 71.5692 39.1801 71.416 39.1383 71.2697C37.7123 66.4294 37.2601 58.8243 40.6548 53.3503C43.027 49.5338 47.5625 47.7927 51.945 49.0323C56.3276 50.265 59.1797 53.998 59.2145 58.5457C59.2562 64.5769 55.9797 71.4786 50.9711 76.7089C52.0285 77.3566 53.2737 77.7954 54.7276 77.865C57.2458 77.9904 59.1171 77.3009 60.6057 75.706C65.0648 70.9076 64.7865 59.4441 64.2996 55.4326L71.2072 54.583C71.2281 54.7571 71.7359 58.9705 71.3881 64.1172C70.9012 71.409 68.9882 76.9039 65.7117 80.4349C63.0265 83.3251 59.4301 84.8364 55.2632 84.8364L55.2771 84.8225ZM49.1277 55.5858C48.2095 55.5858 47.2286 55.9619 46.5747 57.0066C44.5435 60.2868 44.7591 65.6703 45.8234 69.2848C45.8513 69.3824 45.8791 69.4729 45.9069 69.5634C46.0321 69.9534 46.2408 70.5245 46.533 71.1931C49.9555 67.3348 52.2998 62.4597 52.272 58.5736C52.2581 56.5469 50.7277 55.8992 50.0738 55.7182C49.7816 55.6346 49.4547 55.5858 49.1277 55.5858Z" fill="#F24D4D"/>
</svg>
